<svg width="59" height="59" viewBox="0 0 59 59" fill="none" xmlns="http://www.w3.org/2000/svg">
<path d="M33.2522 33.5743C33.6061 33.1728 33.9463 32.1873 34.2389 31.0843C34.9768 31.9447 36.0561 32.5 37.2779 32.5C38.6874 32.5 39.923 31.7709 40.6409 30.6728C40.856 30.7066 41.0736 30.7391 41.2974 30.7391C43.5173 30.7391 45.3182 28.9395 45.3182 26.7196C45.3182 25.0813 44.3365 23.6768 42.9295 23.0503C43.0346 22.5563 43.0983 22.0485 43.0983 21.5245C43.0983 17.6826 40.0931 14.571 36.3099 14.3397C35.1919 11.7859 32.6519 10 29.6904 10C26.2074 10 23.3022 12.465 22.6169 15.7441C22.3092 15.6941 21.999 15.6491 21.6776 15.6491C18.885 15.6491 16.5576 17.6038 15.9623 20.2151C14.0263 21.1756 12.6819 23.1528 12.6819 25.4602C12.6819 28.7031 15.312 31.3332 18.5548 31.3332C20.442 31.3332 22.1028 30.4252 23.1784 29.042C23.6324 30.4052 24.2414 31.8972 24.8342 32.2824C25.9873 33.029 26.3962 33.029 26.6676 33.7756C26.939 34.5235 25.6884 41.7434 25.0768 42.5563C24.4653 43.3692 22.7132 44.1021 21.7114 44.501C20.7084 44.9 16.8102 46.7359 16.4163 47.4887C17.7582 46.9122 20.3857 46.417 22.4855 46.0868C23.1309 45.9842 20.1356 48.0315 20.6259 47.9627C21.4538 47.8502 25.5808 45.6541 25.5821 45.6541C25.5821 45.6541 25.5496 46.7484 24.7679 47.4887C23.4785 48.7106 21.5763 50 21.5763 50C21.5763 50 28.2647 47.8939 29.2827 45.7229C31.8302 49.0495 36.2412 49.6598 36.2412 49.6598C36.2412 49.6598 33.6011 48.0015 33.1209 47.1298C32.6406 46.2581 33.1471 45.7879 33.1471 45.7879C33.1471 45.7879 38.0083 47.6251 42.2167 47.4212C40.5208 46.6746 38.5498 46.063 36.7864 44.9087C35.0206 43.7544 34.0876 43.4892 32.8495 42.9927C31.6113 42.4975 31.6626 38.0703 31.5038 37.1161C31.1474 35.0013 32.2554 34.7149 33.2522 33.5743ZM25.2019 30.589C24.9193 30.3764 24.4353 29.7124 23.9525 28.9845C24.823 29.4935 25.8235 29.8062 26.9052 29.8062C27.0466 29.8062 27.1779 29.7761 27.3167 29.7661C27.3455 30.4502 27.3467 30.9942 27.3467 30.9942C27.3467 30.9942 25.9198 31.1306 25.2019 30.589ZM30.6721 32.1486C30.6721 32.1486 31.2824 30.3152 31.0111 29.3647C30.9448 29.1321 30.881 28.7369 30.826 28.2766C31.1299 28.0015 31.4075 27.7026 31.6476 27.3699C32.1466 27.7326 32.6931 28.0278 33.2797 28.2541C33.2747 28.3304 33.2559 28.403 33.2559 28.4792C33.2559 28.8957 33.336 29.2884 33.4535 29.6648C32.8507 30.7391 32.2742 31.7634 32.0953 32.0798C31.6789 32.8289 30.6721 32.1486 30.6721 32.1486Z" fill="#3C6141"/>
<circle cx="29.5" cy="29.5" r="29" stroke="#5D8863" stroke-opacity="0.7"/>
</svg>
