<svg width="30" height="30" viewBox="0 0 30 30" fill="none" xmlns="http://www.w3.org/2000/svg">
<g clip-path="url(#clip0)">
<path d="M10.9375 22.0151V27.8126C10.9375 28.2176 11.1975 28.5764 11.5825 28.7039C11.6787 28.7351 11.7775 28.7501 11.875 28.7501C12.1675 28.7501 12.45 28.6126 12.63 28.3676L16.0212 23.7526L10.9375 22.0151Z" fill="white"/>
<path d="M29.6063 0.173861C29.3188 -0.0298892 28.9413 -0.0573892 28.6288 0.106361L0.503806 14.7939C0.171306 14.9676 -0.0249444 15.3226 0.0025556 15.6964C0.0313056 16.0714 0.280056 16.3914 0.633806 16.5126L8.45256 19.1851L25.1038 4.94761L12.2188 20.4714L25.3226 24.9501C25.4201 24.9826 25.5226 25.0001 25.6251 25.0001C25.7951 25.0001 25.9638 24.9539 26.1126 24.8639C26.3501 24.7189 26.5113 24.4751 26.5526 24.2014L29.9901 1.07636C30.0413 0.726361 29.8938 0.378861 29.6063 0.173861V0.173861Z" fill="white"/>
</g>
<defs>
<clipPath id="clip0">
<rect width="30" height="30" fill="white"/>
</clipPath>
</defs>
</svg>
