<svg width="48" height="48" viewBox="0 0 48 48" fill="none" xmlns="http://www.w3.org/2000/svg">
<path d="M33.24 5.98001C33.0078 5.7472 32.7319 5.56248 32.4282 5.43645C32.1244 5.31042 31.7988 5.24554 31.47 5.24554C31.1412 5.24554 30.8156 5.31042 30.5118 5.43645C30.2081 5.56248 29.9322 5.7472 29.7 5.98001L13.08 22.6C12.8946 22.785 12.7475 23.0048 12.6471 23.2468C12.5468 23.4887 12.4951 23.7481 12.4951 24.01C12.4951 24.272 12.5468 24.5313 12.6471 24.7733C12.7475 25.0152 12.8946 25.235 13.08 25.42L29.7 42.04C30.68 43.02 32.26 43.02 33.24 42.04C34.22 41.06 34.22 39.48 33.24 38.5L18.76 24L33.26 9.50001C34.22 8.54001 34.22 6.94001 33.24 5.98001Z" fill="#3C6141"/>
</svg>
