<svg width="35" height="35" viewBox="0 0 35 35" fill="none" xmlns="http://www.w3.org/2000/svg">
<g clip-path="url(#clip0)">
<path d="M30.2843 0H4.7173C2.1126 0 0.000976562 2.11153 0.000976562 4.71632V30.2835C0.000976562 32.8883 2.11251 34.9998 4.7173 34.9998H17.3268L17.3483 22.4928H14.099C13.6767 22.4928 13.334 22.1513 13.3324 21.7291L13.3168 17.6975C13.3152 17.2729 13.6589 16.9279 14.0835 16.9279H17.3269V13.0324C17.3269 8.51172 20.0879 6.05018 24.1206 6.05018H27.4298C27.8532 6.05018 28.1965 6.39342 28.1965 6.8169V10.2163C28.1965 10.6396 27.8534 10.9828 27.4302 10.983L25.3994 10.984C23.2063 10.984 22.7816 12.0261 22.7816 13.5555V16.928H27.6007C28.0598 16.928 28.4161 17.3289 28.362 17.7849L27.8842 21.8165C27.8384 22.2023 27.5113 22.493 27.1228 22.493H22.8031L22.7816 35H30.2845C32.8892 35 35.0007 32.8885 35.0007 30.2838V4.71632C35.0006 2.11153 32.8891 0 30.2843 0Z" fill="white"/>
</g>
<defs>
<clipPath id="clip0">
<rect width="35" height="35" fill="white"/>
</clipPath>
</defs>
</svg>
