<svg width="40" height="40" viewBox="0 0 40 40" fill="none" xmlns="http://www.w3.org/2000/svg">
<path d="M24.2522 23.5743C24.6061 23.1728 24.9463 22.1873 25.2389 21.0843C25.9768 21.9447 27.0561 22.5 28.2779 22.5C29.6874 22.5 30.923 21.7709 31.6409 20.6728C31.856 20.7066 32.0736 20.7391 32.2974 20.7391C34.5173 20.7391 36.3182 18.9395 36.3182 16.7196C36.3182 15.0813 35.3365 13.6768 33.9295 13.0503C34.0346 12.5563 34.0983 12.0485 34.0983 11.5245C34.0983 7.68259 31.0931 4.57104 27.3099 4.33967C26.1919 1.78589 23.6519 0 20.6904 0C17.2074 0 14.3022 2.46498 13.6169 5.74412C13.3092 5.6941 12.999 5.64908 12.6776 5.64908C9.88499 5.64908 7.55757 7.6038 6.96228 10.2151C5.02631 11.1756 3.68188 13.1528 3.68188 15.4602C3.68188 18.7031 6.31195 21.3332 9.55482 21.3332C11.442 21.3332 13.1028 20.4252 14.1784 19.042C14.6324 20.4052 15.2414 21.8972 15.8342 22.2824C16.9873 23.029 17.3962 23.029 17.6676 23.7756C17.939 24.5235 16.6884 31.7434 16.0768 32.5563C15.4653 33.3692 13.7132 34.1021 12.7114 34.501C11.7084 34.9 7.8102 36.7359 7.41625 37.4887C8.75817 36.9122 11.3857 36.417 13.4855 36.0868C14.1309 35.9842 11.1356 38.0315 11.6259 37.9627C12.4538 37.8502 16.5808 35.6541 16.5821 35.6541C16.5821 35.6541 16.5496 36.7484 15.7679 37.4887C14.4785 38.7106 12.5763 40 12.5763 40C12.5763 40 19.2647 37.8939 20.2827 35.7229C22.8302 39.0495 27.2412 39.6598 27.2412 39.6598C27.2412 39.6598 24.6011 38.0015 24.1209 37.1298C23.6406 36.2581 24.1471 35.7879 24.1471 35.7879C24.1471 35.7879 29.0083 37.6251 33.2167 37.4212C31.5208 36.6746 29.5498 36.063 27.7864 34.9087C26.0206 33.7544 25.0876 33.4892 23.8495 32.9927C22.6113 32.4975 22.6626 28.0703 22.5038 27.1161C22.1474 25.0013 23.2554 24.7149 24.2522 23.5743ZM16.2019 20.589C15.9193 20.3764 15.4353 19.7124 14.9525 18.9845C15.823 19.4935 16.8235 19.8062 17.9052 19.8062C18.0466 19.8062 18.1779 19.7761 18.3167 19.7661C18.3455 20.4502 18.3467 20.9942 18.3467 20.9942C18.3467 20.9942 16.9198 21.1306 16.2019 20.589ZM21.6721 22.1486C21.6721 22.1486 22.2824 20.3152 22.0111 19.3647C21.9448 19.1321 21.881 18.7369 21.826 18.2766C22.1299 18.0015 22.4075 17.7026 22.6476 17.3699C23.1466 17.7326 23.6931 18.0278 24.2797 18.2541C24.2747 18.3304 24.2559 18.403 24.2559 18.4792C24.2559 18.8957 24.336 19.2884 24.4535 19.6648C23.8507 20.7391 23.2742 21.7634 23.0953 22.0798C22.6789 22.8289 21.6721 22.1486 21.6721 22.1486Z" fill="#3C6141"/>
</svg>
