<svg xmlns="http://www.w3.org/2000/svg" xmlns:xlink="http://www.w3.org/1999/xlink" width="32580" height="180"><style><![CDATA[.B{stroke-width:4}.C{stroke-width:2}.D{stroke-dashoffset:552.91201}.E{stroke-dashoffset:1006.279111}.F{stroke:#3c6141}.G{fill:none}.H{fill:#3c6141}]]></style><g class="F G"><path d="M90 2A88.03 88.03 0 0 0 2 90a88.03 88.03 0 0 0 88 88 88.03 88.03 0 0 0 88-88A88.03 88.03 0 0 0 90 2z" stroke-dasharray="0,552.9120099710243" class="B D"/><path d="M133.163 67.412c.95-2.33 1.43-4.795 1.43-7.35l-.06-1.555a1.74 1.74 0 0 0-1.868-1.595 1.74 1.74 0 0 0-1.595 1.868l.05 1.282a15.93 15.93 0 0 1-1.795 7.388 1.74 1.74 0 0 0-.091 1.388c.165.455.512.82.958 1.01a18.25 18.25 0 0 1 11.164 16.838 18.23 18.23 0 0 1-17.436 18.241c-.752.034-1.396.548-1.596 1.273-1.294 4.688-6.494 8.1-12.364 8.1-2.796 0-5.464-.744-7.66-2.118l5.738-9.055a4.04 4.04 0 0 0 .63-2.039c.035-1.168-.443-2.328-1.388-3.15a4.03 4.03 0 0 0-5.502.208l-4.306 4.36 1.404-10.4a4.04 4.04 0 0 0-.871-3.083c-.613-.752-1.484-1.255-2.434-1.42a4.01 4.01 0 0 0-.411-.049l-1.55-.105a4.01 4.01 0 0 0-2.15.453c-1.066.562-1.86 1.595-2.083 2.863l-2.716 15.433-8.386-10.312c-.278-.342-.606-.63-.967-.856-.045-.03-.086-.05-.125-.073-.516-.3-1.092-.485-1.684-.537-.018-.002-.038-.001-.057-.003-.087-.006-.174-.012-.262-.013a3.99 3.99 0 0 0-1.585.311l-1.62.68a4.02 4.02 0 0 0-1.891 5.778l6.863 11.44c-2.047 1.093-4.444 1.685-6.902 1.685-5.87 0-11.07-3.403-12.363-8.09a1.74 1.74 0 0 0-1.596-1.273 18.23 18.23 0 0 1-17.436-18.241c0-7.362 4.382-13.97 11.164-16.838.446-.188.793-.554.957-1.01s.132-.96-.1-1.388a15.92 15.92 0 0 1-1.796-7.388c0-8.882 7.227-16.108 16.11-16.108 2.475 0 4.852.548 7.064 1.63.463.226 1.003.235 1.473.024a1.74 1.74 0 0 0 .962-1.117c1.935-6.928 8.313-11.767 15.51-11.767a16.16 16.16 0 0 1 15.512 11.767 1.74 1.74 0 0 0 2.435 1.093 15.94 15.94 0 0 1 7.064-1.63c5.938 0 11.376 3.25 14.194 8.484.454.845 1.508 1.16 2.352.706s1.16-1.508.706-2.352a19.57 19.57 0 0 0-17.252-10.311 19.41 19.41 0 0 0-6.779 1.206C105.324 34.275 98.088 29.25 90 29.25s-15.324 5.025-18.23 12.437a19.39 19.39 0 0 0-6.78-1.207c-10.797 0-19.582 8.785-19.582 19.582 0 2.555.48 5.02 1.43 7.35-7.14 3.73-11.665 11.113-11.665 19.273 0 11.245 8.493 20.52 19.55 21.624 2.174 5.623 8.283 9.454 15.32 9.454 3.085 0 6.107-.766 8.7-2.18l.86 1.434c1.174 1.957 1.66 4.276 1.368 6.528-.252 1.948-.563 4.24-.958 6.486-.166.945.466 1.845 1.4 2.01s1.845-.466 2.01-1.4c.407-2.313.725-4.654.982-6.64.392-3.024-.26-6.136-1.834-8.76l-9.512-15.854c-.112-.188-.08-.365-.05-.454s.108-.25.3-.336l1.62-.68a.55.55 0 0 1 .639.16l9.256 11.384c.025.03.05.058.077.087.343.39.77.672 1.242.826a2.84 2.84 0 0 0 1.585.049c.543-.14 1-.413 1.354-.78.014-.015.03-.028.043-.043s.023-.028.035-.042a2.83 2.83 0 0 0 .671-1.397l2.955-16.79c.05-.278.304-.472.58-.454l1.55.105c.207.014.332.132.388.2s.147.216.12.42L93.775 103.9c-.02.152-.028.303-.024.452a2.84 2.84 0 0 0 1.589 2.48 2.74 2.74 0 0 0 .208.092 2.84 2.84 0 0 0 1.085.2c.73-.01 1.446-.3 1.983-.846l5.63-5.7c.097-.1.223-.152.353-.16.02-.002.022-.001.025-.001.1-.003.198.02.286.072a.47.47 0 0 1 .087.061.55.55 0 0 1 .104.709l-7.646 12.064c-1.606 2.534-2.347 5.58-2.087 8.58.727 8.402 1.988 17.875 7.466 25.91h-25.68c1.96-2.906 3.483-6.213 4.622-10.02.275-.92-.247-1.887-1.166-2.162s-1.887.247-2.162 1.166c-1.39 4.644-3.39 8.446-6.115 11.622a1.74 1.74 0 0 0 1.318 2.868h32.698c.678 0 1.295-.395 1.578-1.01s.182-1.342-.26-1.856c-6.688-7.796-8.07-17.93-8.838-26.815-.195-2.246.36-4.526 1.56-6.422l.05-.077c2.75 1.725 6.065 2.66 9.52 2.66 7.037 0 13.146-3.83 15.32-9.454 11.057-1.103 19.55-10.38 19.55-21.624.001-8.16-4.522-15.543-11.664-19.273z" stroke-dasharray="0,1006.279110557925" class="C E"/><use xlink:href="#B" stroke-dasharray="0.03594082297125989,552.876069148053" class="B D"/><path d="M313.163 67.412c.95-2.33 1.43-4.795 1.43-7.35l-.06-1.555a1.74 1.74 0 0 0-1.868-1.595 1.74 1.74 0 0 0-1.595 1.868l.05 1.282a15.93 15.93 0 0 1-1.795 7.388 1.74 1.74 0 0 0-.091 1.388c.165.455.512.82.958 1.01a18.25 18.25 0 0 1 11.164 16.838 18.23 18.23 0 0 1-17.436 18.241c-.752.034-1.396.548-1.596 1.273-1.294 4.688-6.494 8.1-12.364 8.1-2.796 0-5.464-.744-7.66-2.118l5.738-9.055a4.04 4.04 0 0 0 .63-2.039c.035-1.168-.443-2.328-1.388-3.15a4.03 4.03 0 0 0-5.502.208l-4.306 4.36 1.404-10.4a4.04 4.04 0 0 0-.871-3.083c-.613-.752-1.484-1.255-2.434-1.42a4.01 4.01 0 0 0-.411-.049l-1.55-.105a4.01 4.01 0 0 0-2.15.453c-1.066.562-1.86 1.595-2.083 2.863l-2.716 15.433-8.386-10.312c-.278-.342-.606-.63-.967-.856-.045-.03-.086-.05-.125-.073-.516-.3-1.092-.485-1.684-.537-.018-.002-.038-.001-.057-.003-.087-.006-.174-.012-.262-.013a3.99 3.99 0 0 0-1.585.311l-1.62.68a4.02 4.02 0 0 0-1.891 5.778l6.863 11.44c-2.047 1.093-4.444 1.685-6.902 1.685-5.87 0-11.07-3.403-12.363-8.09a1.74 1.74 0 0 0-1.596-1.273 18.23 18.23 0 0 1-17.436-18.241c0-7.362 4.382-13.97 11.164-16.838.446-.188.793-.554.957-1.01s.132-.96-.1-1.388a15.92 15.92 0 0 1-1.796-7.388c0-8.882 7.227-16.108 16.11-16.108 2.475 0 4.852.548 7.064 1.63.463.226 1.003.235 1.473.024a1.74 1.74 0 0 0 .962-1.117c1.935-6.928 8.313-11.767 15.51-11.767a16.16 16.16 0 0 1 15.512 11.767 1.74 1.74 0 0 0 2.435 1.093 15.94 15.94 0 0 1 7.064-1.63c5.938 0 11.376 3.25 14.194 8.484.454.845 1.508 1.16 2.352.706s1.16-1.508.706-2.352a19.57 19.57 0 0 0-17.252-10.311 19.41 19.41 0 0 0-6.779 1.206C285.324 34.275 278.088 29.25 270 29.25s-15.324 5.025-18.23 12.437a19.39 19.39 0 0 0-6.78-1.207c-10.797 0-19.582 8.785-19.582 19.582 0 2.555.48 5.02 1.43 7.35-7.14 3.73-11.665 11.113-11.665 19.273 0 11.245 8.493 20.52 19.55 21.624 2.174 5.623 8.283 9.454 15.32 9.454 3.085 0 6.107-.766 8.7-2.18l.86 1.434c1.174 1.957 1.66 4.276 1.368 6.528-.252 1.948-.563 4.24-.958 6.486-.166.945.466 1.845 1.4 2.01s1.845-.466 2.01-1.4c.407-2.313.725-4.654.982-6.64.392-3.024-.26-6.136-1.834-8.76l-9.512-15.854c-.112-.188-.08-.365-.05-.454s.108-.25.3-.336l1.62-.68a.55.55 0 0 1 .639.16l9.256 11.384c.025.03.05.058.077.087.343.39.77.672 1.242.826a2.84 2.84 0 0 0 1.585.049c.543-.14 1-.413 1.354-.78.014-.015.03-.028.043-.043s.023-.028.035-.042a2.83 2.83 0 0 0 .671-1.397l2.955-16.79c.05-.278.304-.472.58-.454l1.55.105c.207.014.332.132.388.2s.147.216.12.42l-1.656 12.268c-.02.152-.028.303-.024.452a2.84 2.84 0 0 0 1.589 2.48 2.74 2.74 0 0 0 .208.092 2.84 2.84 0 0 0 1.085.2c.73-.01 1.446-.3 1.983-.846l5.63-5.7c.097-.1.223-.152.353-.16.02-.002.022-.001.025-.001.1-.003.198.02.286.072a.47.47 0 0 1 .087.061.55.55 0 0 1 .104.709l-7.646 12.064c-1.606 2.534-2.347 5.58-2.087 8.58.727 8.402 1.988 17.875 7.466 25.91h-25.68c1.96-2.906 3.483-6.213 4.622-10.02.275-.92-.247-1.887-1.166-2.162s-1.887.247-2.162 1.166c-1.39 4.644-3.39 8.446-6.115 11.622a1.74 1.74 0 0 0 1.318 2.868h32.698c.678 0 1.295-.395 1.578-1.01s.182-1.342-.26-1.856c-6.688-7.796-8.07-17.93-8.838-26.815-.195-2.246.36-4.526 1.56-6.422l.05-.077c2.75 1.725 6.065 2.66 9.52 2.66 7.037 0 13.146-3.83 15.32-9.454 11.057-1.103 19.55-10.38 19.55-21.624.001-8.16-4.522-15.543-11.664-19.273z" stroke-dasharray="0.0654109491565115,1006.2136996087685" class="C E"/><use xlink:href="#B" x="180" stroke-dasharray="0.14535181281433474,552.76665815821" class="B D"/><path d="M493.163 67.412c.95-2.33 1.43-4.795 1.43-7.35l-.06-1.555a1.74 1.74 0 0 0-1.868-1.595 1.74 1.74 0 0 0-1.595 1.868l.05 1.282a15.93 15.93 0 0 1-1.795 7.388 1.74 1.74 0 0 0-.091 1.388c.165.455.512.82.958 1.01a18.25 18.25 0 0 1 11.164 16.838 18.23 18.23 0 0 1-17.436 18.241c-.752.034-1.396.548-1.596 1.273-1.294 4.688-6.494 8.1-12.364 8.1-2.796 0-5.464-.744-7.66-2.118l5.738-9.055a4.04 4.04 0 0 0 .63-2.039c.035-1.168-.443-2.328-1.388-3.15a4.03 4.03 0 0 0-5.502.208l-4.306 4.36 1.404-10.4a4.04 4.04 0 0 0-.871-3.083c-.613-.752-1.484-1.255-2.434-1.42a4.01 4.01 0 0 0-.411-.049l-1.55-.105a4.01 4.01 0 0 0-2.15.453c-1.066.562-1.86 1.595-2.083 2.863l-2.716 15.433-8.386-10.312c-.278-.342-.606-.63-.967-.856-.045-.03-.086-.05-.125-.073-.516-.3-1.092-.485-1.684-.537-.018-.002-.038-.001-.057-.003-.087-.006-.174-.012-.262-.013a3.99 3.99 0 0 0-1.585.311l-1.62.68a4.02 4.02 0 0 0-1.891 5.778l6.863 11.44c-2.047 1.093-4.444 1.685-6.902 1.685-5.87 0-11.07-3.403-12.363-8.09a1.74 1.74 0 0 0-1.596-1.273 18.23 18.23 0 0 1-17.436-18.241c0-7.362 4.382-13.97 11.164-16.838.446-.188.793-.554.957-1.01s.132-.96-.1-1.388a15.92 15.92 0 0 1-1.796-7.388c0-8.882 7.227-16.108 16.11-16.108 2.475 0 4.852.548 7.064 1.63.463.226 1.003.235 1.473.024a1.74 1.74 0 0 0 .962-1.117c1.935-6.928 8.313-11.767 15.51-11.767a16.16 16.16 0 0 1 15.512 11.767 1.74 1.74 0 0 0 2.435 1.093 15.94 15.94 0 0 1 7.064-1.63c5.938 0 11.376 3.25 14.194 8.484.454.845 1.508 1.16 2.352.706s1.16-1.508.706-2.352a19.57 19.57 0 0 0-17.252-10.311 19.41 19.41 0 0 0-6.779 1.206C465.324 34.275 458.088 29.25 450 29.25s-15.324 5.025-18.23 12.437a19.39 19.39 0 0 0-6.78-1.207c-10.797 0-19.582 8.785-19.582 19.582 0 2.555.48 5.02 1.43 7.35-7.14 3.73-11.665 11.113-11.665 19.273 0 11.245 8.493 20.52 19.55 21.624 2.174 5.623 8.283 9.454 15.32 9.454 3.085 0 6.107-.766 8.7-2.18l.86 1.434c1.174 1.957 1.66 4.276 1.368 6.528-.252 1.948-.563 4.24-.958 6.486-.166.945.466 1.845 1.4 2.01s1.845-.466 2.01-1.4c.407-2.313.725-4.654.982-6.64.392-3.024-.26-6.136-1.834-8.76l-9.512-15.854c-.112-.188-.08-.365-.05-.454s.108-.25.3-.336l1.62-.68a.55.55 0 0 1 .639.16l9.256 11.384c.025.03.05.058.077.087.343.39.77.672 1.242.826a2.84 2.84 0 0 0 1.585.049c.543-.14 1-.413 1.354-.78.014-.015.03-.028.043-.043s.023-.028.035-.042a2.83 2.83 0 0 0 .671-1.397l2.955-16.79c.05-.278.304-.472.58-.454l1.55.105c.207.014.332.132.388.2s.147.216.12.42l-1.656 12.268c-.02.152-.028.303-.024.452a2.84 2.84 0 0 0 1.589 2.48 2.74 2.74 0 0 0 .208.092 2.84 2.84 0 0 0 1.085.2c.73-.01 1.446-.3 1.983-.846l5.63-5.7c.097-.1.223-.152.353-.16.02-.002.022-.001.025-.001.1-.003.198.02.286.072a.47.47 0 0 1 .087.061.55.55 0 0 1 .104.709l-7.646 12.064c-1.606 2.534-2.347 5.58-2.087 8.58.727 8.402 1.988 17.875 7.466 25.91h-25.68c1.96-2.906 3.483-6.213 4.622-10.02.275-.92-.247-1.887-1.166-2.162s-1.887.247-2.162 1.166c-1.39 4.644-3.39 8.446-6.115 11.622a1.74 1.74 0 0 0 1.318 2.868h32.698c.678 0 1.295-.395 1.578-1.01s.182-1.342-.26-1.856c-6.688-7.796-8.07-17.93-8.838-26.815-.195-2.246.36-4.526 1.56-6.422l.05-.077c2.75 1.725 6.065 2.66 9.52 2.66 7.037 0 13.146-3.83 15.32-9.454 11.057-1.103 19.55-10.38 19.55-21.624.001-8.16-4.522-15.543-11.664-19.273z" stroke-dasharray="0.2645348451093617,1006.0145757128157" class="C E"/><use xlink:href="#B" x="360" stroke-dasharray="0.33069722745582103,552.5813127435684" class="B D"/><path d="M673.163 67.412c.95-2.33 1.43-4.795 1.43-7.35l-.06-1.555a1.74 1.74 0 0 0-1.868-1.595 1.74 1.74 0 0 0-1.595 1.868l.05 1.282a15.93 15.93 0 0 1-1.795 7.388 1.74 1.74 0 0 0-.091 1.388c.165.455.512.82.958 1.01a18.25 18.25 0 0 1 11.164 16.838 18.23 18.23 0 0 1-17.436 18.241c-.752.034-1.396.548-1.596 1.273-1.294 4.688-6.494 8.1-12.364 8.1-2.796 0-5.464-.744-7.66-2.118l5.738-9.055a4.04 4.04 0 0 0 .63-2.039c.035-1.168-.443-2.328-1.388-3.15a4.03 4.03 0 0 0-5.502.208l-4.306 4.36 1.404-10.4a4.04 4.04 0 0 0-.871-3.083c-.613-.752-1.484-1.255-2.434-1.42a4.01 4.01 0 0 0-.411-.049l-1.55-.105a4.01 4.01 0 0 0-2.15.453c-1.066.562-1.86 1.595-2.083 2.863l-2.716 15.433-8.386-10.312c-.278-.342-.606-.63-.967-.856-.045-.03-.086-.05-.125-.073-.516-.3-1.092-.485-1.684-.537-.018-.002-.038-.001-.057-.003-.087-.006-.174-.012-.262-.013a3.99 3.99 0 0 0-1.585.311l-1.62.68a4.02 4.02 0 0 0-1.891 5.778l6.863 11.44c-2.047 1.093-4.444 1.685-6.902 1.685-5.87 0-11.07-3.403-12.363-8.09a1.74 1.74 0 0 0-1.596-1.273 18.23 18.23 0 0 1-17.436-18.241c0-7.362 4.382-13.97 11.164-16.838.446-.188.793-.554.957-1.01s.132-.96-.1-1.388a15.92 15.92 0 0 1-1.796-7.388c0-8.882 7.227-16.108 16.11-16.108 2.475 0 4.852.548 7.064 1.63.463.226 1.003.235 1.473.024a1.74 1.74 0 0 0 .962-1.117c1.935-6.928 8.313-11.767 15.51-11.767a16.16 16.16 0 0 1 15.512 11.767 1.74 1.74 0 0 0 2.435 1.093 15.94 15.94 0 0 1 7.064-1.63c5.938 0 11.376 3.25 14.194 8.484.454.845 1.508 1.16 2.352.706s1.16-1.508.706-2.352a19.57 19.57 0 0 0-17.252-10.311 19.41 19.41 0 0 0-6.779 1.206C645.324 34.275 638.088 29.25 630 29.25s-15.324 5.025-18.23 12.437a19.39 19.39 0 0 0-6.78-1.207c-10.797 0-19.582 8.785-19.582 19.582 0 2.555.48 5.02 1.43 7.35-7.14 3.73-11.665 11.113-11.665 19.273 0 11.245 8.493 20.52 19.55 21.624 2.174 5.623 8.283 9.454 15.32 9.454 3.085 0 6.107-.766 8.7-2.18l.86 1.434c1.174 1.957 1.66 4.276 1.368 6.528-.252 1.948-.563 4.24-.958 6.486-.166.945.466 1.845 1.4 2.01s1.845-.466 2.01-1.4c.407-2.313.725-4.654.982-6.64.392-3.024-.26-6.136-1.834-8.76l-9.512-15.854c-.112-.188-.08-.365-.05-.454s.108-.25.3-.336l1.62-.68a.55.55 0 0 1 .639.16l9.256 11.384c.025.03.05.058.077.087.343.39.77.672 1.242.826a2.84 2.84 0 0 0 1.585.049c.543-.14 1-.413 1.354-.78.014-.015.03-.028.043-.043s.023-.028.035-.042a2.83 2.83 0 0 0 .671-1.397l2.955-16.79c.05-.278.304-.472.58-.454l1.55.105c.207.014.332.132.388.2s.147.216.12.42l-1.656 12.268c-.02.152-.028.303-.024.452a2.84 2.84 0 0 0 1.589 2.48 2.74 2.74 0 0 0 .208.092 2.84 2.84 0 0 0 1.085.2c.73-.01 1.446-.3 1.983-.846l5.63-5.7c.097-.1.223-.152.353-.16.02-.002.022-.001.025-.001.1-.003.198.02.286.072a.47.47 0 0 1 .087.061.55.55 0 0 1 .104.709l-7.646 12.064c-1.606 2.534-2.347 5.58-2.087 8.58.727 8.402 1.988 17.875 7.466 25.91h-25.68c1.96-2.906 3.483-6.213 4.622-10.02.275-.92-.247-1.887-1.166-2.162s-1.887.247-2.162 1.166c-1.39 4.644-3.39 8.446-6.115 11.622a1.74 1.74 0 0 0 1.318 2.868h32.698c.678 0 1.295-.395 1.578-1.01s.182-1.342-.26-1.856c-6.688-7.796-8.07-17.93-8.838-26.815-.195-2.246.36-4.526 1.56-6.422l.05-.077c2.75 1.725 6.065 2.66 9.52 2.66 7.037 0 13.146-3.83 15.32-9.454 11.057-1.103 19.55-10.38 19.55-21.624.001-8.16-4.522-15.543-11.664-19.273z" stroke-dasharray="0.6018565448156111,1005.6772540131094" class="C E"/><use xlink:href="#B" x="540" stroke-dasharray="0.5945545152567189,552.3174554557676" class="B D"/><path d="M853.163 67.412c.95-2.33 1.43-4.795 1.43-7.35l-.06-1.555a1.74 1.74 0 0 0-1.868-1.595 1.74 1.74 0 0 0-1.595 1.868l.05 1.282a15.93 15.93 0 0 1-1.795 7.388 1.74 1.74 0 0 0-.091 1.388c.165.455.512.82.958 1.01a18.25 18.25 0 0 1 11.164 16.838 18.23 18.23 0 0 1-17.436 18.241c-.752.034-1.396.548-1.596 1.273-1.294 4.688-6.494 8.1-12.364 8.1-2.796 0-5.464-.744-7.66-2.118l5.738-9.055a4.04 4.04 0 0 0 .63-2.039c.035-1.168-.443-2.328-1.388-3.15a4.03 4.03 0 0 0-5.502.208l-4.306 4.36 1.404-10.4a4.04 4.04 0 0 0-.871-3.083c-.613-.752-1.484-1.255-2.434-1.42a4.01 4.01 0 0 0-.411-.049l-1.55-.105a4.01 4.01 0 0 0-2.15.453c-1.066.562-1.86 1.595-2.083 2.863l-2.716 15.433-8.386-10.312c-.278-.342-.606-.63-.967-.856-.045-.03-.086-.05-.125-.073-.516-.3-1.092-.485-1.684-.537-.018-.002-.038-.001-.057-.003-.087-.006-.174-.012-.262-.013a3.99 3.99 0 0 0-1.585.311l-1.62.68a4.02 4.02 0 0 0-1.891 5.778l6.863 11.44c-2.047 1.093-4.444 1.685-6.902 1.685-5.87 0-11.07-3.403-12.363-8.09a1.74 1.74 0 0 0-1.596-1.273 18.23 18.23 0 0 1-17.436-18.241c0-7.362 4.382-13.97 11.164-16.838.446-.188.793-.554.957-1.01s.132-.96-.1-1.388a15.92 15.92 0 0 1-1.796-7.388c0-8.882 7.227-16.108 16.11-16.108 2.475 0 4.852.548 7.064 1.63.463.226 1.003.235 1.473.024a1.74 1.74 0 0 0 .962-1.117c1.935-6.928 8.313-11.767 15.51-11.767a16.16 16.16 0 0 1 15.512 11.767 1.74 1.74 0 0 0 2.435 1.093 15.94 15.94 0 0 1 7.064-1.63c5.938 0 11.376 3.25 14.194 8.484.454.845 1.508 1.16 2.352.706s1.16-1.508.706-2.352a19.57 19.57 0 0 0-17.252-10.311 19.41 19.41 0 0 0-6.779 1.206C825.324 34.275 818.088 29.25 810 29.25s-15.324 5.025-18.23 12.437a19.39 19.39 0 0 0-6.78-1.207c-10.797 0-19.582 8.785-19.582 19.582 0 2.555.48 5.02 1.43 7.35-7.14 3.73-11.665 11.113-11.665 19.273 0 11.245 8.493 20.52 19.55 21.624 2.174 5.623 8.283 9.454 15.32 9.454 3.085 0 6.107-.766 8.7-2.18l.86 1.434c1.174 1.957 1.66 4.276 1.368 6.528-.252 1.948-.563 4.24-.958 6.486-.166.945.466 1.845 1.4 2.01s1.845-.466 2.01-1.4c.407-2.313.725-4.654.982-6.64.392-3.024-.26-6.136-1.834-8.76l-9.512-15.854c-.112-.188-.08-.365-.05-.454s.108-.25.3-.336l1.62-.68a.55.55 0 0 1 .639.16l9.256 11.384c.025.03.05.058.077.087.343.39.77.672 1.242.826a2.84 2.84 0 0 0 1.585.049c.543-.14 1-.413 1.354-.78.014-.015.03-.028.043-.043s.023-.028.035-.042a2.83 2.83 0 0 0 .671-1.397l2.955-16.79c.05-.278.304-.472.58-.454l1.55.105c.207.014.332.132.388.2s.147.216.12.42l-1.656 12.268c-.02.152-.028.303-.024.452a2.84 2.84 0 0 0 1.589 2.48 2.74 2.74 0 0 0 .208.092 2.84 2.84 0 0 0 1.085.2c.73-.01 1.446-.3 1.983-.846l5.63-5.7c.097-.1.223-.152.353-.16.02-.002.022-.001.025-.001.1-.003.198.02.286.072a.47.47 0 0 1 .087.061.55.55 0 0 1 .104.709l-7.646 12.064c-1.606 2.534-2.347 5.58-2.087 8.58.727 8.402 1.988 17.875 7.466 25.91h-25.68c1.96-2.906 3.483-6.213 4.622-10.02.275-.92-.247-1.887-1.166-2.162s-1.887.247-2.162 1.166c-1.39 4.644-3.39 8.446-6.115 11.622a1.74 1.74 0 0 0 1.318 2.868h32.698c.678 0 1.295-.395 1.578-1.01s.182-1.342-.26-1.856c-6.688-7.796-8.07-17.93-8.838-26.815-.195-2.246.36-4.526 1.56-6.422l.05-.077c2.75 1.725 6.065 2.66 9.52 2.66 7.037 0 13.146-3.83 15.32-9.454 11.057-1.103 19.55-10.38 19.55-21.624.001-8.16-4.522-15.543-11.664-19.273z" stroke-dasharray="1.0820669075755527,1005.1970436503494" class="C E"/><use xlink:href="#B" x="720" stroke-dasharray="0.939620228065098,551.9723897429592" class="B D"/><use xlink:href="#C" stroke-dasharray="1.7100735565666807,1004.5690370013584" class="C E"/><use xlink:href="#B" x="900" stroke-dasharray="1.368716194414704,551.5432937766096" class="B D"/><use xlink:href="#C" x="180" stroke-dasharray="2.4910121138335106,1003.7880984440916" class="C E"/><use xlink:href="#B" x="1080" stroke-dasharray="1.8847959453038787,551.0272140257205" class="B D"/><use xlink:href="#C" x="360" stroke-dasharray="3.4302578949640914,1002.848852662961" class="C E"/><use xlink:href="#B" x="1260" stroke-dasharray="2.490951379120055,550.4210585919043" class="B D"/><use xlink:href="#C" x="540" stroke-dasharray="4.53343803900249,1001.7456725189226" class="C E"/><use xlink:href="#B" x="1440" stroke-dasharray="3.1904196448822355,549.7215903261421" class="B D"/><use xlink:href="#C" x="720" stroke-dasharray="5.806444035691814,1000.4726665222332" class="C E"/><use xlink:href="#B" x="1620" stroke-dasharray="3.986590213727065,548.9254197572973" class="B D"/><use xlink:href="#C" x="900" stroke-dasharray="7.255444595313513,999.0236659626116" class="C E"/><use xlink:href="#B" x="1800" stroke-dasharray="4.88301209706853,548.0289978739557" class="B D"/><use xlink:href="#C" x="1080" stroke-dasharray="8.886898785467173,997.3922117724579" class="C E"/><use xlink:href="#B" x="1980" stroke-dasharray="5.883401155647179,547.0286088153771" class="B D"/><use xlink:href="#C" x="1260" stroke-dasharray="10.707569333265832,995.5715412246592" class="C E"/><use xlink:href="#B" x="2160" stroke-dasharray="6.9916474261956125,545.9203625448287" class="B D"/><use xlink:href="#C" x="1440" stroke-dasharray="12.724535959592249,993.5545745983328" class="C E"/><use xlink:href="#B" x="2340" stroke-dasharray="8.211822371028262,544.7001875999961" class="B D"/><use xlink:href="#C" x="1620" stroke-dasharray="14.94520857308026,991.3339019848447" class="C E"/><use xlink:href="#B" x="2520" stroke-dasharray="9.548185929749684,543.3638240412746" class="B D"/><use xlink:href="#C" x="1800" stroke-dasharray="17.377340103959263,988.9017704539657" class="C E"/><use xlink:href="#B" x="2700" stroke-dasharray="11.005193220581827,541.9068167504424" class="B D"/><use xlink:href="#C" x="1980" stroke-dasharray="20.029038700218397,986.2500718577065" class="C E"/><use xlink:href="#B" x="2880" stroke-dasharray="12.587500700522435,540.3245092705018" class="B D"/><use xlink:href="#C" x="2160" stroke-dasharray="22.90877893886366,983.3703316190613" class="C E"/><use xlink:href="#B" x="3060" stroke-dasharray="14.29997154752169,538.6120384235027" class="B D"/><use xlink:href="#C" x="2340" stroke-dasharray="26.025411621277435,980.2536989366477" class="C E"/><use xlink:href="#B" x="3240" stroke-dasharray="16.14767997283614,536.7643299981881" class="B D"/><use xlink:href="#C" x="2520" stroke-dasharray="29.388171621540856,976.8909389363843" class="C E"/><use xlink:href="#B" x="3420" stroke-dasharray="18.135914106325558,534.7760958646987" class="B D"/><use xlink:href="#C" x="2700" stroke-dasharray="33.00668313756578,973.2724274203592" class="C E"/><use xlink:href="#B" x="3600" stroke-dasharray="20.270177020281945,532.6418329507424" class="B D"/><use xlink:href="#C" x="2880" stroke-dasharray="36.89096155442518,969.3881490034998" class="C E"/><use xlink:href="#B" x="3780" stroke-dasharray="22.556185367032015,530.3558246039923" class="B D"/><use xlink:href="#C" x="3060" stroke-dasharray="41.05141096484078,965.2276995930844" class="C E"/><use xlink:href="#B" x="3960" stroke-dasharray="24.999865000798938,527.9121449702254" class="B D"/><use xlink:href="#C" x="3240" stroke-dasharray="45.49881620113572,960.7802943567893" class="C E"/><use xlink:href="#B" x="4140" stroke-dasharray="27.60734283425747,525.3046671367669" class="B D"/><use xlink:href="#C" x="3420" stroke-dasharray="50.24432801447047,956.0347825434545" class="C E"/><use xlink:href="#B" x="4320" stroke-dasharray="30.384934044611082,522.5270759264132" class="B D"/><use xlink:href="#C" x="3600" stroke-dasharray="55.299439790383275,950.9796707675417" class="C E"/><use xlink:href="#B" x="4500" stroke-dasharray="33.33912359362853,519.5728863773958" class="B D"/><use xlink:href="#C" x="3780" stroke-dasharray="60.67595391595017,945.6031566419749" class="C E"/><use xlink:href="#B" x="4680" stroke-dasharray="36.47654086324739,516.435469107777" class="B D"/><use xlink:href="#C" x="3960" stroke-dasharray="66.38593561753518,939.8931749403898" class="C E"/><use xlink:href="#B" x="4860" stroke-dasharray="39.80392603772879,513.1080839332956" class="B D"/><use xlink:href="#C" x="4140" stroke-dasharray="72.44165177757345,933.8374587803517" class="C E"/><use xlink:href="#B" x="5040" stroke-dasharray="43.328086692807794,509.5839232782165" class="B D"/><use xlink:href="#C" x="4320" stroke-dasharray="78.85549192845384,927.4236186294712" class="C E"/><use xlink:href="#B" x="5220" stroke-dasharray="47.05584289407752,505.85616707694675" class="B D"/><use xlink:href="#C" x="4500" stroke-dasharray="85.63986833363822,920.6392422242868" class="C E"/><use xlink:href="#B" x="5400" stroke-dasharray="50.99395897891805,501.91805099210626" class="B D"/><use xlink:href="#C" x="4680" stroke-dasharray="92.80709183333188,913.4720187245931" class="C E"/><use xlink:href="#B" x="5580" stroke-dasharray="55.149060123698426,497.76294984732584" class="B D"/><use xlink:href="#C" x="4860" stroke-dasharray="100.36921999992197,905.9098905580031" class="C E"/><use xlink:href="#B" x="5760" stroke-dasharray="59.52753181425055,493.38447815677375" class="B D"/><use xlink:href="#C" x="5040" stroke-dasharray="108.33787417801216,897.9412363799129" class="C E"/><use xlink:href="#B" x="5940" stroke-dasharray="64.1354004855781,488.77660948544616" class="B D"/><use xlink:href="#C" x="5220" stroke-dasharray="116.7240222531719,889.5550883047531" class="C E"/><use xlink:href="#B" x="6120" stroke-dasharray="68.97819392854234,483.93381604248196" class="B D"/><use xlink:href="#C" x="5400" stroke-dasharray="125.53772459734269,880.7413859605823" class="C E"/><use xlink:href="#B" x="6300" stroke-dasharray="74.06078063646858,478.8512293345557" class="B D"/><use xlink:href="#C" x="5580" stroke-dasharray="134.7878416856902,871.4912688722347" class="C E"/><use xlink:href="#B" x="6480" stroke-dasharray="79.38718814586608,473.5248218251582" class="B D"/><use xlink:href="#C" x="5760" stroke-dasharray="144.4817034835312,861.7974070743938" class="C E"/><use xlink:href="#B" x="6660" stroke-dasharray="84.96040167014037,467.95160830088395" class="B D"/><use xlink:href="#C" x="5940" stroke-dasharray="154.62474296724585,851.6543675906792" class="C E"/><use xlink:href="#B" x="6840" stroke-dasharray="90.78214597239656,462.12986399862774" class="B D"/><use xlink:href="#C" x="6120" stroke-dasharray="165.22009914096512,841.0590114169598" class="C E"/><use xlink:href="#B" x="7020" stroke-dasharray="96.85265547583604,456.05935449518824" class="B D"/><use xlink:href="#C" x="6300" stroke-dasharray="176.268198646119,830.0109119118059" class="C E"/><use xlink:href="#B" x="7200" stroke-dasharray="103.1704400115534,449.74156995947095" class="B D"/><use xlink:href="#C" x="6480" stroke-dasharray="187.76632943121703,818.5127811267081" class="C E"/><use xlink:href="#B" x="7380" stroke-dasharray="109.73205621480707,443.1799537562172" class="B D"/><use xlink:href="#C" x="6660" stroke-dasharray="199.7082247016392,806.5708858562858" class="C E"/><use xlink:href="#B" x="7560" stroke-dasharray="116.53189716127255,436.3801128097518" class="B D"/><use xlink:href="#C" x="6840" stroke-dasharray="212.08368006551024,794.1954304924149" class="C E"/><use xlink:href="#B" x="7740" stroke-dasharray="123.56201503584397,429.34999493518035" class="B D"/><use xlink:href="#C" x="7020" stroke-dasharray="224.87823079757308,781.4008797603519" class="C E"/><use xlink:href="#B" x="7920" stroke-dasharray="130.81199300998028,422.10001696104405" class="B D"/><use xlink:href="#C" x="7200" stroke-dasharray="238.07291866076628,768.2061918971588" class="C E"/><use xlink:href="#B" x="8100" stroke-dasharray="138.26888259257592,414.6431273784484" class="B D"/><use xlink:href="#D" stroke-dasharray="251.6441778871597,754.6349326707654" class="C E"/><use xlink:href="#B" x="8280" stroke-dasharray="145.91722108602633,406.99478888499794" class="B D"/><use xlink:href="#D" x="180" stroke-dasharray="265.5638669473387,740.7152436105864" class="C E"/><use xlink:href="#B" x="8460" stroke-dasharray="153.73914015977385,399.1728698112505" class="B D"/><use xlink:href="#D" x="360" stroke-dasharray="279.79946615018326,726.4796444077418" class="C E"/><use xlink:href="#B" x="8640" stroke-dasharray="161.71457096720917,391.19743900381513" class="B D"/><use xlink:href="#D" x="540" stroke-dasharray="294.3144509479323,711.9646596099927" class="C E"/><use xlink:href="#B" x="8820" stroke-dasharray="169.8215440652528,383.09046590577145" class="B D"/><use xlink:href="#D" x="720" stroke-dasharray="309.06883777856723,697.2102727793578" class="C E"/><use xlink:href="#B" x="9000" stroke-dasharray="178.03657441457318,374.8754355564511" class="B D"/><use xlink:href="#D" x="900" stroke-dasharray="324.0198847517623,682.2592258061628" class="C E"/><use xlink:href="#B" x="9180" stroke-dasharray="186.3351139948183,366.576895976206" class="B D"/><use xlink:href="#D" x="1080" stroke-dasharray="339.12291539162203,667.1561951663031" class="C E"/><use xlink:href="#B" x="9360" stroke-dasharray="194.69204821367728,358.21996175734705" class="B D"/><use xlink:href="#D" x="1260" stroke-dasharray="354.3322220825459,651.9468884753791" class="C E"/><use xlink:href="#B" x="9540" stroke-dasharray="203.08220832213829,349.829801648886" class="B D"/><use xlink:href="#D" x="1440" stroke-dasharray="369.60199864577015,636.6771119121549" class="C E"/><use xlink:href="#B" x="9720" stroke-dasharray="211.48087108954905,341.43113888147525" class="B D"/><use xlink:href="#D" x="1620" stroke-dasharray="384.8872497292273,621.3918608286978" class="C E"/><use xlink:href="#B" x="9900" stroke-dasharray="219.8642191315562,333.0477908394681" class="B D"/><use xlink:href="#D" x="1800" stroke-dasharray="400.1446285871229,606.1344819708022" class="C E"/><use xlink:href="#B" x="10080" stroke-dasharray="228.20974007390046,324.7022698971238" class="B D"/><use xlink:href="#D" x="1980" stroke-dasharray="415.3331635430643,590.9459470148607" class="C E"/><use xlink:href="#B" x="10260" stroke-dasharray="236.496549314764,316.4154606562603" class="B D"/><use xlink:href="#D" x="2160" stroke-dasharray="430.41484540542126,575.8642651525037" class="C E"/><use xlink:href="#B" x="10440" stroke-dasharray="244.7056284597271,308.2063815112972" class="B D"/><use xlink:href="#D" x="2340" stroke-dasharray="445.35506141000036,560.9240491479246" class="C E"/><use xlink:href="#B" x="10620" stroke-dasharray="252.81997852489428,300.09203144613" class="B D"/><use xlink:href="#D" x="2520" stroke-dasharray="460.12287404398523,546.1562365139398" class="C E"/><use xlink:href="#B" x="10800" stroke-dasharray="260.8246929370247,292.0873170339996" class="B D"/><use xlink:href="#D" x="2700" stroke-dasharray="474.69115390343507,531.58795665449" class="C E"/><use xlink:href="#B" x="10980" stroke-dasharray="268.70695972864246,284.20505024238184" class="B D"/><use xlink:href="#D" x="2880" stroke-dasharray="489.0365836883028,517.2425268696222" class="C E"/><use xlink:href="#B" x="11160" stroke-dasharray="276.4560049855121,276.4560049855122" class="B D"/><use xlink:href="#D" x="3060" stroke-dasharray="503.1395552789624,503.13955527896263" class="C E"/><use xlink:href="#B" x="11340" stroke-dasharray="284.0629906768036,268.8490192942207" class="B D"/><use xlink:href="#D" x="3240" stroke-dasharray="516.9839837909436,489.2951267669814" class="C E"/><use xlink:href="#B" x="11520" stroke-dasharray="291.5208797812051,261.3911301898192" class="B D"/><use xlink:href="#D" x="3420" stroke-dasharray="530.5570621095175,475.72204844840763" class="C E"/><use xlink:href="#B" x="11700" stroke-dasharray="298.82428048671824,254.08772948430607" class="B D"/><use xlink:href="#D" x="3600" stroke-dasharray="543.8489773391703,462.43013321875463" class="C E"/><use xlink:href="#B" x="11880" stroke-dasharray="305.96927955601143,246.94273041501287" class="B D"/><use xlink:href="#D" x="3780" stroke-dasharray="556.8526075348002,449.4265030231249" class="C E"/><use xlink:href="#B" x="12060" stroke-dasharray="312.95327302706943,239.95873694395488" class="B D"/><use xlink:href="#D" x="3960" stroke-dasharray="569.5632135832506,436.7158969746744" class="C E"/><use xlink:href="#B" x="12240" stroke-dasharray="319.7748004972763,233.13720947374796" class="B D"/><use xlink:href="#D" x="4140" stroke-dasharray="581.9781376065613,424.30097295136375" class="C E"/><use xlink:href="#B" x="12420" stroke-dasharray="326.4333874749618,226.47862249606246" class="B D"/><use xlink:href="#D" x="4320" stroke-dasharray="594.0965160476972,412.18259451022794" class="C E"/><use xlink:href="#B" x="12600" stroke-dasharray="332.92939876321407,219.9826112078102" class="B D"/><use xlink:href="#D" x="4500" stroke-dasharray="605.9190128345896,400.3600977233354" class="C E"/><use xlink:href="#B" x="12780" stroke-dasharray="339.2639046001073,213.64810537091702" class="B D"/><use xlink:href="#D" x="4680" stroke-dasharray="617.447575760374,388.831534797551" class="C E"/><use xlink:href="#B" x="12960" stroke-dasharray="345.438560314172,207.47344965685232" class="B D"/><use xlink:href="#D" x="4860" stroke-dasharray="628.6852174608609,377.5938930970641" class="C E"/><use xlink:href="#B" x="13140" stroke-dasharray="351.4554995382947,201.4565104327296" class="B D"/><use xlink:href="#D" x="5040" stroke-dasharray="639.635821067841,366.64328949008404" class="C E"/><use xlink:href="#B" x="13320" stroke-dasharray="357.3172405225425,195.5947694484818" class="B D"/><use xlink:href="#D" x="5220" stroke-dasharray="650.3039697019409,355.97514085598414" class="C E"/><use xlink:href="#B" x="13500" stroke-dasharray="363.02660475666767,189.88540521435667" class="B D"/><use xlink:href="#D" x="5400" stroke-dasharray="660.6947983686356,345.5843121892895" class="C E"/><use xlink:href="#B" x="13680" stroke-dasharray="368.5866469179907,184.32536305303358" class="B D"/><use xlink:href="#D" x="5580" stroke-dasharray="670.8138664660241,335.46524409190096" class="C E"/><use xlink:href="#B" x="13860" stroke-dasharray="374.0005950660543,178.91141490497003" class="B D"/><use xlink:href="#D" x="5760" stroke-dasharray="680.6670489413434,325.61206161658157" class="C E"/><use xlink:href="#B" x="14040" stroke-dasharray="379.27179998349266,173.64020998753165" class="B D"/><use xlink:href="#D" x="5940" stroke-dasharray="690.2604440932528,316.01866646467226" class="C E"/><use xlink:href="#B" x="14220" stroke-dasharray="384.40369259015023,168.50831738087408" class="B D"/><use xlink:href="#D" x="6120" stroke-dasharray="699.6002960671261,306.67881449079886" class="C E"/><use xlink:href="#B" x="14400" stroke-dasharray="389.3997484169714,163.5122615540529" class="B D"/><use xlink:href="#D" x="6300" stroke-dasharray="708.6929301988658,297.58618035905914" class="C E"/><use xlink:href="#B" x="14580" stroke-dasharray="394.26345820435205,158.64855176667226" class="B D"/><use xlink:href="#D" x="6480" stroke-dasharray="717.5446995050052,288.7344110529199" class="C E"/><use xlink:href="#B" x="14760" stroke-dasharray="398.9983037769634,153.91370619406092" class="B D"/><use xlink:href="#D" x="6660" stroke-dasharray="726.1619407757928,280.11716978213224" class="C E"/><use xlink:href="#B" x="14940" stroke-dasharray="403.60773843682216,149.30427153420212" class="B D"/><use xlink:href="#D" x="6840" stroke-dasharray="734.550938891317,271.72817166660815" class="C E"/><use xlink:href="#B" x="15120" stroke-dasharray="408.0951712041539,144.8168387668704" class="B D"/><use xlink:href="#D" x="7020" stroke-dasharray="742.717898140467,263.56121241745797" class="C E"/><use xlink:href="#B" x="15300" stroke-dasharray="412.4639543185673,140.44805565245704" class="B D"/><use xlink:href="#D" x="7200" stroke-dasharray="750.6689194735409,255.61019108438413" class="C E"/><use xlink:href="#B" x="15480" stroke-dasharray="416.7173734896056,136.19463648141868" class="B D"/><use xlink:href="#D" x="7380" stroke-dasharray="758.4099827586138,247.86912779931131" class="C E"/><use xlink:href="#B" x="15660" stroke-dasharray="420.85864045510027,132.05336951592403" class="B D"/><use xlink:href="#D" x="7560" stroke-dasharray="765.9469332380205,240.33217731990456" class="C E"/><use xlink:href="#B" x="15840" stroke-dasharray="424.8908874677363,128.02112250328798" class="B D"/><use xlink:href="#D" x="7740" stroke-dasharray="773.2854714941128,232.99363906381225" class="C E"/><use xlink:href="#B" x="16020" stroke-dasharray="428.8171633850198,124.0948465860045" class="B D"/><use xlink:href="#D" x="7920" stroke-dasharray="780.4311463331456,225.8479642247794" class="C E"/><use xlink:href="#B" x="16200" stroke-dasharray="432.64043108583155,120.27157888519277" class="B D"/><use xlink:href="#C" x="15480" stroke-dasharray="787.3893500835023,218.88976047442264" class="C E"/><use xlink:href="#B" x="16380" stroke-dasharray="436.3635659785002,116.54844399252406" class="B D"/><use xlink:href="#C" x="15660" stroke-dasharray="794.1653158804439,212.11379467748114" class="C E"/><use xlink:href="#B" x="16560" stroke-dasharray="439.98935540143225,112.92265456959207" class="B D"/><use xlink:href="#C" x="15840" stroke-dasharray="800.764116575277,205.51499398264806" class="C E"/><use xlink:href="#B" x="16740" stroke-dasharray="443.5204987484009,109.39151122262342" class="B D"/><use xlink:href="#C" x="16020" stroke-dasharray="807.1906649633764,199.08844559454857" class="C E"/><use xlink:href="#B" x="16920" stroke-dasharray="446.9596081772286,105.95240179379576" class="B D"/><use xlink:href="#C" x="16200" stroke-dasharray="813.44971507396,192.8293954839651" class="C E"/><use xlink:href="#B" x="17100" stroke-dasharray="450.3092097833299,102.60280018769444" class="B D"/><use xlink:href="#C" x="16380" stroke-dasharray="819.5458643058923,186.73324625203273" class="C E"/><use xlink:href="#B" x="17280" stroke-dasharray="453.57174513894967,99.34026483207462" class="B D"/><use xlink:href="#C" x="16560" stroke-dasharray="825.483556229041,180.795554328884" class="C E"/><use xlink:href="#B" x="17460" stroke-dasharray="456.74957311537224,96.16243685565209" class="B D"/><use xlink:href="#C" x="16740" stroke-dasharray="831.2670839006287,175.01202665729636" class="C E"/><use xlink:href="#B" x="17640" stroke-dasharray="459.8449719193099,93.06703805171443" class="B D"/><use xlink:href="#C" x="16920" stroke-dasharray="836.9005935713839,169.37851698654117" class="C E"/><use xlink:href="#B" x="17820" stroke-dasharray="462.8601412864609,90.05186868456344" class="B D"/><use xlink:href="#C" x="17100" stroke-dasharray="842.388088677734,163.89102188019106" class="C E"/><use xlink:href="#B" x="18000" stroke-dasharray="465.79720478516833,87.11480518585597" class="B D"/><use xlink:href="#C" x="17280" stroke-dasharray="847.7334340343783,158.54567652354672" class="C E"/><use xlink:href="#B" x="18180" stroke-dasharray="468.65821219148677,84.25379777953756" class="B D"/><use xlink:href="#C" x="17460" stroke-dasharray="852.9403601568198,153.3387504011053" class="C E"/><use xlink:href="#B" x="18360" stroke-dasharray="471.4451419040056,81.46686806701868" class="B D"/><use xlink:href="#C" x="17640" stroke-dasharray="858.0124676562533,148.26664290167167" class="C E"/><use xlink:href="#B" x="18540" stroke-dasharray="474.1599033726938,78.75210659833051" class="B D"/><use xlink:href="#C" x="17820" stroke-dasharray="862.9532316599718,143.3258788979532" class="C E"/><use xlink:href="#B" x="18720" stroke-dasharray="476.80433952098196,76.10767045004233" class="B D"/><use xlink:href="#C" x="18000" stroke-dasharray="867.7660062194648,138.51310433846027" class="C E"/><use xlink:href="#B" x="18900" stroke-dasharray="479.3802291444447,73.53178082657962" class="B D"/><use xlink:href="#C" x="18180" stroke-dasharray="872.45402867593,133.82508188199512" class="C E"/><use xlink:href="#B" x="19080" stroke-dasharray="481.88928927290584,71.02272069811845" class="B D"/><use xlink:href="#C" x="18360" stroke-dasharray="877.0204239592166,129.25868659870838" class="C E"/><use xlink:href="#B" x="19260" stroke-dasharray="484.3331774856695,68.57883248535478" class="B D"/><use xlink:href="#C" x="18540" stroke-dasharray="881.4682088014589,124.81090175646615" class="C E"/><use xlink:href="#B" x="19440" stroke-dasharray="486.7134941719789,66.19851579904545" class="B D"/><use xlink:href="#C" x="18720" stroke-dasharray="885.8002958510259,120.47881470689913" class="C E"/><use xlink:href="#B" x="19620" stroke-dasharray="489.0317847307835,63.88022524024078" class="B D"/><use xlink:href="#C" x="18900" stroke-dasharray="890.0194976760162,116.25961288190885" class="C E"/><use xlink:href="#B" x="19800" stroke-dasharray="491.28954170554186,61.62246826548246" class="B D"/><use xlink:href="#C" x="19080" stroke-dasharray="894.1285306495174,112.15057990840765" class="C E"/><use xlink:href="#B" x="19980" stroke-dasharray="493.48820685113026,59.423803119894046" class="B D"/><use xlink:href="#C" x="19260" stroke-dasharray="898.1300187113038,108.14909184662119" class="C E"/><use xlink:href="#B" x="20160" stroke-dasharray="495.6291731310382,57.28283683998612" class="B D"/><use xlink:href="#C" x="19440" stroke-dasharray="902.0264970026565,104.25261355526851" class="C E"/><use xlink:href="#B" x="20340" stroke-dasharray="497.7137866439301,55.1982233270942" class="B D"/><use xlink:href="#C" x="19620" stroke-dasharray="905.8204153726334,100.45869518529163" class="C E"/><use xlink:href="#B" x="20520" stroke-dasharray="499.74334847938525,53.16866149163907" class="B D"/><use xlink:href="#C" x="19800" stroke-dasharray="909.5141417554463,96.76496880247872" class="C E"/><use xlink:href="#B" x="20700" stroke-dasharray="501.7191165032141,51.19289346781023" class="B D"/><use xlink:href="#C" x="19980" stroke-dasharray="913.10996541967,93.16914513825505" class="C E"/><use xlink:href="#B" x="20880" stroke-dasharray="503.6423070732192,49.269702897805146" class="B D"/><use xlink:href="#C" x="20160" stroke-dasharray="916.6101000908621,89.66901046706293" class="C E"/><use xlink:href="#B" x="21060" stroke-dasharray="505.51409668663445,47.39791328438986" class="B D"/><use xlink:href="#C" x="20340" stroke-dasharray="920.0166869498414,86.26242360808368" class="C E"/><use xlink:href="#B" x="21240" stroke-dasharray="507.3356235607653,45.576386410258976" class="B D"/><use xlink:href="#C" x="20520" stroke-dasharray="923.3317975093928,82.9473130485322" class="C E"/><use xlink:href="#B" x="21420" stroke-dasharray="509.1079891485673,43.804020822456984" class="B D"/><use xlink:href="#C" x="20700" stroke-dasharray="926.5574363725644,79.72167418536058" class="C E"/><use xlink:href="#B" x="21600" stroke-dasharray="510.83225959106113,42.07975037996317" class="B D"/><use xlink:href="#C" x="20880" stroke-dasharray="929.6955438760077,76.58356668191728" class="C E"/><use xlink:href="#B" x="21780" stroke-dasharray="512.5094671085958,40.40254286242847" class="B D"/><use xlink:href="#C" x="21060" stroke-dasharray="932.7479986220249,73.53111193590021" class="C E"/><use xlink:href="#B" x="21960" stroke-dasharray="514.1406113330462,38.77139863797813" class="B D"/><use xlink:href="#C" x="21240" stroke-dasharray="935.7166199031172,70.56249065480776" class="C E"/><use xlink:href="#B" x="22140" stroke-dasharray="515.7266605830735,37.185349387950815" class="B D"/><use xlink:href="#C" x="21420" stroke-dasharray="938.6031700229133,67.67594053501169" class="C E"/><use xlink:href="#B" x="22320" stroke-dasharray="517.2685530845969,35.64345688642749" class="B D"/><use xlink:href="#C" x="21600" stroke-dasharray="941.4093565173795,64.86975404054552" class="C E"/><use xlink:href="#B" x="22500" stroke-dasharray="518.7671981386169,34.14481183240738" class="B D"/><use xlink:href="#C" x="21780" stroke-dasharray="944.1368342802164,62.14227627770869" class="C E"/><use xlink:href="#B" x="22680" stroke-dasharray="520.2234772385189,32.68853273250542" class="B D"/><use xlink:href="#C" x="21960" stroke-dasharray="946.7872075963073,59.4919029616177" class="C E"/><use xlink:href="#B" x="22860" stroke-dasharray="521.6382451389421,31.273764832082144" class="B D"/><use xlink:href="#C" x="22140" stroke-dasharray="949.3620320870223,56.917078470902716" class="C E"/><use xlink:href="#B" x="23040" stroke-dasharray="523.0123308782678,29.899679092756514" class="B D"/><use xlink:href="#C" x="22320" stroke-dasharray="951.8628165711058,54.41629398681928" class="C E"/><use xlink:href="#B" x="23220" stroke-dasharray="524.3465387567187,28.565471214305646" class="B D"/><use xlink:href="#C" x="22500" stroke-dasharray="954.2910248447826,51.98808571314247" class="C E"/><use xlink:href="#B" x="23400" stroke-dasharray="525.6416492720126,27.27036069901173" class="B D"/><use xlink:href="#C" x="22680" stroke-dasharray="956.6480773846116,49.63103317331344" class="C E"/><use xlink:href="#B" x="23580" stroke-dasharray="526.8984200144481,26.01358995657623" class="B D"/><use xlink:href="#C" x="22860" stroke-dasharray="958.9353529765082,47.34375758141683" class="C E"/><use xlink:href="#B" x="23760" stroke-dasharray="528.1175865232362,24.794423447788052" class="B D"/><use xlink:href="#C" x="23040" stroke-dasharray="961.154190274236,45.124920283688986" class="C E"/><use xlink:href="#B" x="23940" stroke-dasharray="529.2998631058281,23.612146865196248" class="B D"/><use xlink:href="#C" x="23220" stroke-dasharray="963.305889290552,42.973221267373006" class="C E"/><use xlink:href="#B" x="24120" stroke-dasharray="530.445943621921,22.466066349103404" class="B D"/><use xlink:href="#C" x="23400" stroke-dasharray="965.3917128240689,40.88739773385614" class="C E"/><use xlink:href="#B" x="24300" stroke-dasharray="531.556502233755,21.355507737269228" class="B D"/><use xlink:href="#C" x="23580" stroke-dasharray="967.4128878247666,38.866222733158466" class="C E"/><use xlink:href="#B" x="24480" stroke-dasharray="532.6321941242534,20.27981584677089" class="B D"/><use xlink:href="#C" x="23760" stroke-dasharray="969.3706067009794,36.90850385694565" class="C E"/><use xlink:href="#B" x="24660" stroke-dasharray="533.6736561844838,19.238353786540568" class="B D"/><use xlink:href="#C" x="23940" stroke-dasharray="971.266028570552,35.013081987373106" class="C E"/><use xlink:href="#B" x="24840" stroke-dasharray="534.681507671863,18.230502299161373" class="B D"/><use xlink:href="#C" x="24120" stroke-dasharray="973.1002804587458,33.178830099179244" class="C E"/><use xlink:href="#B" x="25020" stroke-dasharray="535.6563508404581,17.255659130566205" class="B D"/><use xlink:href="#C" x="24300" stroke-dasharray="974.874458445364,31.404652112561042" class="C E"/><use xlink:href="#B" x="25200" stroke-dasharray="536.5987715446797,16.31323842634461" class="B D"/><use xlink:href="#C" x="24480" stroke-dasharray="976.5896287634498,29.689481794475206" class="C E"/><use xlink:href="#B" x="25380" stroke-dasharray="537.5093398175984,15.402670153425943" class="B D"/><use xlink:href="#C" x="24660" stroke-dasharray="978.2468288518019,28.032281706123207" class="C E"/><use xlink:href="#B" x="25560" stroke-dasharray="538.3886104250662,14.523399545958073" class="B D"/><use xlink:href="#C" x="24840" stroke-dasharray="979.8470683634537,26.43204219447132" class="C E"/><use xlink:href="#B" x="25740" stroke-dasharray="539.2371233967627,13.674886574261606" class="B D"/><use xlink:href="#C" x="25020" stroke-dasharray="981.3913301321578,24.88778042576724" class="C E"/><use xlink:href="#B" x="25920" stroke-dasharray="540.0554045352329,12.856605435791385" class="B D"/><use xlink:href="#C" x="25200" stroke-dasharray="982.880571098816,23.398539459109106" class="C E"/><use xlink:href="#B" x="26100" stroke-dasharray="540.8439659039399,12.068044067084413" class="B D"/><use xlink:href="#C" x="25380" stroke-dasharray="984.315723199716,21.963387358209044" class="C E"/><use xlink:href="#B" x="26280" stroke-dasharray="541.6033062952955,11.308703675728752" class="B D"/><use xlink:href="#C" x="25560" stroke-dasharray="985.6976942183309,20.58141633959412" class="C E"/><use xlink:href="#B" x="26460" stroke-dasharray="542.3339116795955,10.578098291428732" class="B D"/><use xlink:href="#C" x="25740" stroke-dasharray="987.0273686023631,19.25174195556187" class="C E"/><use xlink:href="#B" x="26640" stroke-dasharray="543.036255635735,9.875754335289333" class="B D"/><use xlink:href="#C" x="25920" stroke-dasharray="988.305608247631,17.97350231029403" class="C E"/><use xlink:href="#B" x="26820" stroke-dasharray="543.7107997645386,9.201210206485685" class="B D"/><use xlink:href="#C" x="26100" stroke-dasharray="989.5332532503145,16.745857307610553" class="C E"/><use xlink:href="#B" x="27000" stroke-dasharray="544.3579940855025,8.55401588552186" class="B D"/></g><use xlink:href="#C" x="26280" fill-opacity=".002" stroke-dasharray="990.7111226290095,15.567987928915473" class="C E F H"/><use xlink:href="#B" x="27180" stroke-dasharray="544.9782774176991,7.93373255332514" class="B D F G"/><use xlink:href="#C" x="26460" fill-opacity=".01" stroke-dasharray="991.8400150179623,14.43909553996279" class="C E F H"/><use xlink:href="#B" x="27360" stroke-dasharray="545.5720777455684,7.3399322254558985" class="B D F G"/><use xlink:href="#C" x="26640" fill-opacity=".026" stroke-dasharray="992.9207093327929,13.358401225132154" class="C E F H"/><use xlink:href="#B" x="27540" stroke-dasharray="546.1398125702744,6.772197400749817" class="B D F G"/><use xlink:href="#C" x="26820" fill-opacity=".05" stroke-dasharray="993.9539654099541,12.325145147970916" class="C E F H"/><use xlink:href="#B" x="27720" stroke-dasharray="546.6818892472812,6.230120723743141" class="B D F G"/><use xlink:href="#C" x="27000" fill-opacity=".085" stroke-dasharray="994.9405246211043,11.338585936820738" class="C E F H"/><use xlink:href="#B" x="27900" stroke-dasharray="547.1987053107628,5.713304660261576" class="B D F G"/><use xlink:href="#C" x="27180" fill-opacity=".134" stroke-dasharray="995.8811104635234,10.39800009440156" class="C E F H"/><use xlink:href="#B" x="28080" stroke-dasharray="547.6906487854386,5.221361185585667" class="B D F G"/><use xlink:href="#C" x="27360" fill-opacity=".198" stroke-dasharray="996.7764291276408,9.502681430284294" class="C E F H"/><use xlink:href="#B" x="28260" stroke-dasharray="548.1580984863921,4.753911484632223" class="B D F G"/><use xlink:href="#C" x="27540" fill-opacity=".278" stroke-dasharray="997.6271700426928,8.651940515232278" class="C E F H"/><use xlink:href="#B" x="28440" stroke-dasharray="548.6014243074029,4.310585663621355" class="B D F G"/><use xlink:href="#C" x="27720" fill-opacity=".367" stroke-dasharray="998.434006401479,7.845104156446081" class="C E F H"/><use xlink:href="#B" x="28620" stroke-dasharray="549.0209874983042,3.891022472720159" class="B D F G"/><use xlink:href="#C" x="27900" fill-opacity=".457" stroke-dasharray="999.1975956651396,7.081514892785439" class="C E F H"/><use xlink:href="#B" x="28800" stroke-dasharray="549.4171409318408,3.4948690391835298" class="B D F G"/><use xlink:href="#C" x="28080" fill-opacity=".54" stroke-dasharray="999.9185800488295,6.360530509095531" class="C E F H"/><use xlink:href="#B" x="28980" stroke-dasharray="549.7902293604909,3.1217806105334067" class="B D F G"/><use xlink:href="#C" x="28260" fill-opacity=".614" stroke-dasharray="1000.5975869891222,5.681523568802853" class="C E F H"/><use xlink:href="#B" x="29160" stroke-dasharray="550.1405896636859,2.771420307338421" class="B D F G"/><use xlink:href="#C" x="28440" fill-opacity=".676" stroke-dasharray="1001.2352295939415,5.043880963983451" class="C E F H"/><use xlink:href="#B" x="29340" stroke-dasharray="550.4685510858435,2.443458885180811" class="B D F G"/><use xlink:href="#C" x="28620" fill-opacity=".73" stroke-dasharray="1001.8321070757734,4.447003482151636" class="C E F H"/><use xlink:href="#B" x="29520" stroke-dasharray="550.7744354656107,2.137574505413566" class="B D F G"/><use xlink:href="#C" x="28800" fill-opacity=".776" stroke-dasharray="1002.3888051688784,3.8903053890465933" class="C E F H"/><use xlink:href="#B" x="29700" stroke-dasharray="551.0585574566915,1.8534525143327947" class="B D F G"/><use xlink:href="#C" x="28980" fill-opacity=".814" stroke-dasharray="1002.9058965311907,3.373214026734373" class="C E F H"/><use xlink:href="#B" x="29880" stroke-dasharray="551.3212247406198,1.5907852304044956" class="B D F G"/><use xlink:href="#C" x="29160" fill-opacity=".848" stroke-dasharray="1003.3839411315564,2.895169426368599" class="C E F H"/><use xlink:href="#B" x="30060" stroke-dasharray="551.5627382318165,1.3492717392077953" class="B D F G"/><use xlink:href="#C" x="29340" fill-opacity=".876" stroke-dasharray="1003.8234866229302,2.4556239349948616" class="C E F H"/><use xlink:href="#B" x="30240" stroke-dasharray="551.7833922752585,1.1286176957658212" class="B D F G"/><use xlink:href="#C" x="29520" fill-opacity=".9" stroke-dasharray="1004.2250687021248,2.0540418558003157" class="C E F H"/><use xlink:href="#B" x="30420" stroke-dasharray="551.9834748370693,0.9285351339550637" class="B D F G"/><use xlink:href="#C" x="29700" fill-opacity=".92" stroke-dasharray="1004.5892114566792,1.6898991012458768" class="C E F H"/><use xlink:href="#B" x="30600" stroke-dasharray="552.1632676883235,0.7487422827007905" class="B D F G"/><use xlink:href="#C" x="29880" fill-opacity=".938" stroke-dasharray="1004.9164276993763,1.362682858548771" class="C E F H"/><use xlink:href="#B" x="30780" stroke-dasharray="552.3230465823523,0.5889633886720264" class="B D F G"/><use xlink:href="#C" x="30060" fill-opacity=".953" stroke-dasharray="1005.207219290931,1.0718912669940501" class="C E F H"/><use xlink:href="#B" x="30960" stroke-dasharray="552.4630814258128,0.448928545211464" class="B D F G"/><use xlink:href="#C" x="30240" fill-opacity=".965" stroke-dasharray="1005.4620774513315,0.8170331065934512" class="C E F H"/><use xlink:href="#B" x="31140" stroke-dasharray="552.5836364437814,0.32837352724291735" class="B D F G"/><use xlink:href="#C" x="30420" fill-opacity=".975" stroke-dasharray="1005.6814830603018,0.5976274976231536" class="C E F H"/><use xlink:href="#B" x="31320" stroke-dasharray="552.6849703391126,0.22703963191163376" class="B D F G"/><use xlink:href="#C" x="30600" fill-opacity=".983" stroke-dasharray="1005.8659069473299,0.41320361059512956" class="C E F H"/><use xlink:href="#B" x="31500" stroke-dasharray="552.7673364462986,0.1446735247256741" class="B D F G"/><use xlink:href="#C" x="30780" fill-opacity="1" stroke-dasharray="1006.0158101716848,0.26330038624022767" class="C E F H"/><use xlink:href="#B" x="31680" stroke-dasharray="552.8309828800499,0.08102709097442531" class="B D F G"/><use xlink:href="#C" x="30960" fill-opacity=".994" stroke-dasharray="1006.1316442928296,0.14746626509544208" class="C E F H"/><use xlink:href="#B" x="31860" stroke-dasharray="552.8761526788094,0.03585729221498234" class="B D F G"/><use xlink:href="#C" x="31140" fill-opacity=".998" stroke-dasharray="1006.2138516316105,0.06525892631451244" class="C E F H"/><use xlink:href="#B" x="32040" stroke-dasharray="552.9030839434035,0.00892602762075809" class="B D F G"/><use xlink:href="#C" x="31320" fill-opacity="1" stroke-dasharray="1006.2628655225974,0.01624503532759694" class="C E F H"/><use xlink:href="#B" x="32220" class="B F G"/><use xlink:href="#C" x="31500" class="C F H"/><defs ><path id="B" d="M270 2a88.03 88.03 0 0 0-88 88 88.03 88.03 0 0 0 88 88 88.03 88.03 0 0 0 88-88 88.03 88.03 0 0 0-88-88z"/><path id="C" d="M1033.163 67.412c.95-2.33 1.43-4.795 1.43-7.35l-.06-1.555a1.74 1.74 0 0 0-1.868-1.595 1.74 1.74 0 0 0-1.595 1.868l.05 1.282a15.93 15.93 0 0 1-1.795 7.388 1.74 1.74 0 0 0-.091 1.388c.165.455.512.82.958 1.01a18.25 18.25 0 0 1 11.164 16.838 18.23 18.23 0 0 1-17.436 18.241c-.752.034-1.396.548-1.596 1.273-1.294 4.688-6.494 8.1-12.364 8.1-2.796 0-5.464-.744-7.66-2.118l5.738-9.055a4.04 4.04 0 0 0 .63-2.039c.035-1.168-.443-2.328-1.388-3.15a4.03 4.03 0 0 0-5.502.208l-4.306 4.36 1.404-10.4a4.04 4.04 0 0 0-.871-3.083c-.613-.752-1.484-1.255-2.434-1.42a4.01 4.01 0 0 0-.411-.049l-1.55-.105a4.01 4.01 0 0 0-2.15.453c-1.066.562-1.86 1.595-2.083 2.863l-2.716 15.433-8.386-10.312c-.278-.342-.606-.63-.967-.856-.045-.03-.086-.05-.125-.073-.516-.3-1.092-.485-1.684-.537-.018-.002-.038-.001-.057-.003-.087-.006-.174-.012-.262-.013a3.99 3.99 0 0 0-1.585.311l-1.62.68a4.02 4.02 0 0 0-1.891 5.778l6.863 11.44c-2.047 1.093-4.444 1.685-6.902 1.685-5.87 0-11.07-3.403-12.363-8.09a1.74 1.74 0 0 0-1.596-1.273 18.23 18.23 0 0 1-17.436-18.241c0-7.362 4.382-13.97 11.164-16.838.446-.188.793-.554.957-1.01s.132-.96-.1-1.388a15.92 15.92 0 0 1-1.796-7.388c0-8.882 7.227-16.108 16.11-16.108 2.475 0 4.852.548 7.064 1.63.463.226 1.003.235 1.473.024a1.74 1.74 0 0 0 .962-1.117c1.935-6.928 8.313-11.767 15.51-11.767a16.16 16.16 0 0 1 15.512 11.767 1.74 1.74 0 0 0 2.435 1.093 15.94 15.94 0 0 1 7.064-1.63c5.938 0 11.376 3.25 14.194 8.484.454.845 1.508 1.16 2.352.706s1.16-1.508.706-2.352a19.57 19.57 0 0 0-17.252-10.311 19.41 19.41 0 0 0-6.779 1.206c-2.91-7.412-10.145-12.437-18.233-12.437s-15.324 5.025-18.23 12.437a19.39 19.39 0 0 0-6.78-1.207c-10.797 0-19.582 8.785-19.582 19.582 0 2.555.48 5.02 1.43 7.35-7.14 3.73-11.665 11.113-11.665 19.273 0 11.245 8.493 20.52 19.55 21.624 2.174 5.623 8.283 9.454 15.32 9.454 3.085 0 6.107-.766 8.7-2.18l.86 1.434c1.174 1.957 1.66 4.276 1.368 6.528-.252 1.948-.563 4.24-.958 6.486-.166.945.466 1.845 1.4 2.01s1.845-.466 2.01-1.4c.407-2.313.725-4.654.982-6.64.392-3.024-.26-6.136-1.834-8.76l-9.512-15.854c-.112-.188-.08-.365-.05-.454s.108-.25.3-.336l1.62-.68a.55.55 0 0 1 .639.16l9.256 11.384c.025.03.05.058.077.087.343.39.77.672 1.242.826a2.84 2.84 0 0 0 1.585.049c.543-.14 1-.413 1.354-.78.014-.015.03-.028.043-.043s.023-.028.035-.042a2.83 2.83 0 0 0 .671-1.397l2.955-16.79c.05-.278.304-.472.58-.454l1.55.105c.207.014.332.132.388.2s.147.216.12.42l-1.656 12.268c-.02.152-.028.303-.024.452a2.84 2.84 0 0 0 1.589 2.48 2.74 2.74 0 0 0 .208.092 2.84 2.84 0 0 0 1.085.2c.73-.01 1.446-.3 1.983-.846l5.63-5.7c.097-.1.223-.152.353-.16.02-.002.022-.001.025-.001.1-.003.198.02.286.072a.47.47 0 0 1 .087.061.55.55 0 0 1 .104.709l-7.646 12.064c-1.606 2.534-2.347 5.58-2.087 8.58.727 8.402 1.988 17.875 7.466 25.91h-25.68c1.96-2.906 3.483-6.213 4.622-10.02.275-.92-.247-1.887-1.166-2.162s-1.887.247-2.162 1.166c-1.39 4.644-3.39 8.446-6.115 11.622a1.74 1.74 0 0 0 1.318 2.868h32.698c.678 0 1.295-.395 1.578-1.01s.182-1.342-.26-1.856c-6.688-7.796-8.07-17.93-8.838-26.815-.195-2.246.36-4.526 1.56-6.422l.05-.077c2.75 1.725 6.065 2.66 9.52 2.66 7.037 0 13.146-3.83 15.32-9.454 11.057-1.103 19.55-10.38 19.55-21.624.001-8.16-4.522-15.543-11.664-19.273z"/><path id="D" d="M8413.163 67.412c.95-2.33 1.43-4.795 1.43-7.35l-.06-1.555a1.74 1.74 0 0 0-1.868-1.595 1.74 1.74 0 0 0-1.595 1.868l.05 1.282a15.93 15.93 0 0 1-1.795 7.388 1.74 1.74 0 0 0-.091 1.388c.165.455.512.82.958 1.01a18.25 18.25 0 0 1 11.164 16.838 18.23 18.23 0 0 1-17.436 18.241c-.752.034-1.396.548-1.596 1.273-1.294 4.688-6.494 8.1-12.364 8.1-2.796 0-5.464-.744-7.66-2.118l5.738-9.055a4.04 4.04 0 0 0 .63-2.039c.035-1.168-.443-2.328-1.388-3.15a4.03 4.03 0 0 0-5.502.208l-4.306 4.36 1.404-10.4a4.04 4.04 0 0 0-.871-3.083c-.613-.752-1.484-1.255-2.434-1.42a4.01 4.01 0 0 0-.411-.049l-1.55-.105a4.01 4.01 0 0 0-2.15.453c-1.066.562-1.86 1.595-2.083 2.863l-2.716 15.433-8.386-10.312c-.278-.342-.606-.63-.967-.856-.045-.03-.086-.05-.125-.073-.516-.3-1.092-.485-1.684-.537-.018-.002-.038-.001-.057-.003a4.55 4.55 0 0 0-.262-.013 3.99 3.99 0 0 0-1.585.311l-1.62.68a4.02 4.02 0 0 0-1.891 5.778l6.863 11.44c-2.047 1.093-4.444 1.685-6.902 1.685-5.87 0-11.07-3.403-12.363-8.09a1.74 1.74 0 0 0-1.596-1.273 18.23 18.23 0 0 1-17.436-18.241c0-7.362 4.382-13.97 11.164-16.838.446-.188.793-.554.957-1.01s.132-.96-.1-1.388a15.92 15.92 0 0 1-1.796-7.388c0-8.882 7.227-16.108 16.11-16.108 2.475 0 4.852.548 7.064 1.63.463.226 1.003.235 1.473.024a1.74 1.74 0 0 0 .962-1.117c1.935-6.928 8.313-11.767 15.51-11.767a16.16 16.16 0 0 1 15.512 11.767 1.74 1.74 0 0 0 2.435 1.093 15.94 15.94 0 0 1 7.064-1.63c5.938 0 11.376 3.25 14.194 8.484.454.845 1.508 1.16 2.352.706s1.16-1.508.706-2.352a19.57 19.57 0 0 0-17.252-10.311 19.41 19.41 0 0 0-6.779 1.206c-2.91-7.412-10.145-12.437-18.233-12.437s-15.324 5.025-18.23 12.437a19.39 19.39 0 0 0-6.78-1.207c-10.797 0-19.582 8.785-19.582 19.582 0 2.555.48 5.02 1.43 7.35-7.14 3.73-11.665 11.113-11.665 19.273 0 11.245 8.493 20.52 19.55 21.624 2.174 5.623 8.283 9.454 15.32 9.454 3.085 0 6.107-.766 8.7-2.18l.86 1.434c1.174 1.957 1.66 4.276 1.368 6.528-.252 1.948-.563 4.24-.958 6.486-.166.945.466 1.845 1.4 2.01s1.845-.466 2.01-1.4c.407-2.313.725-4.654.982-6.64.392-3.024-.26-6.136-1.834-8.76l-9.512-15.854c-.112-.188-.08-.365-.05-.454s.108-.25.3-.336l1.62-.68a.55.55 0 0 1 .639.16l9.256 11.384c.025.03.05.058.077.087.343.39.77.672 1.242.826a2.84 2.84 0 0 0 1.585.049c.543-.14 1-.413 1.354-.78.014-.015.03-.028.043-.043s.023-.028.035-.042a2.83 2.83 0 0 0 .671-1.397l2.955-16.79c.05-.278.304-.472.58-.454l1.55.105c.207.014.332.132.388.2s.147.216.12.42l-1.656 12.268c-.02.152-.028.303-.024.452a2.84 2.84 0 0 0 1.589 2.48 2.74 2.74 0 0 0 .208.092 2.84 2.84 0 0 0 1.085.2c.73-.01 1.446-.3 1.983-.846l5.63-5.7c.097-.1.223-.152.353-.16.02-.002.022-.001.025-.001.1-.003.198.02.286.072a.47.47 0 0 1 .087.061.55.55 0 0 1 .104.709l-7.646 12.064c-1.606 2.534-2.347 5.58-2.087 8.58.727 8.402 1.988 17.875 7.466 25.91h-25.68c1.96-2.906 3.483-6.213 4.622-10.02.275-.92-.247-1.887-1.166-2.162s-1.887.247-2.162 1.166c-1.39 4.644-3.39 8.446-6.115 11.622a1.74 1.74 0 0 0 1.318 2.868h32.698c.678 0 1.295-.395 1.578-1.01s.182-1.342-.26-1.856c-6.688-7.796-8.07-17.93-8.838-26.815-.195-2.246.36-4.526 1.56-6.422l.05-.077c2.75 1.725 6.065 2.66 9.52 2.66 7.037 0 13.146-3.83 15.32-9.454 11.057-1.103 19.55-10.38 19.55-21.624.001-8.16-4.522-15.543-11.664-19.273z"/></defs></svg>