<svg width="67" height="67" viewBox="0 0 67 67" fill="none" xmlns="http://www.w3.org/2000/svg">
<path d="M67 33.5C67 52.0015 52.0015 67 33.5 67C14.9985 67 0 52.0015 0 33.5C0 14.9985 14.9985 0 33.5 0C52.0015 0 67 14.9985 67 33.5ZM6.09404 33.5C6.09404 48.6359 18.3641 60.906 33.5 60.906C48.6359 60.906 60.906 48.6359 60.906 33.5C60.906 18.3641 48.6359 6.09404 33.5 6.09404C18.3641 6.09404 6.09404 18.3641 6.09404 33.5Z" fill="#353535"/>
<g clip-path="url(#clip0)">
<path d="M19.273 32.236C19.1642 32.3054 19.0928 32.4211 19.0806 32.5484C19.0291 33.0738 18.9437 33.8656 18.7913 34.6749C18.5028 36.2059 18.1436 36.8595 17.8912 37.1398C17.6837 37.3706 17.4177 37.64 17.1224 37.9255L16.4076 37.0229C16.2649 36.8431 16.0041 36.8119 15.8237 36.954L14.1848 38.2404C14.006 38.3812 13.9732 38.6403 14.1123 38.8225L14.9446 39.9018C14.3649 40.4059 13.9407 40.7621 13.9297 40.7712C13.7579 40.9155 13.7309 41.1703 13.8698 41.3483L16.4426 44.6258C16.5119 44.7135 16.613 44.7701 16.7243 44.7822C16.8356 44.7943 16.9471 44.7619 17.0334 44.6914C17.0334 44.6914 17.44 44.3597 18.0203 43.8879L26.0499 54.294C26.2525 54.5581 26.5412 54.7508 26.8632 54.8371L27.0396 54.8844C27.8525 55.1022 28.6907 54.6182 28.9085 53.8054C29.0328 53.3416 28.9293 52.8396 28.6312 52.4631L20.3489 42.0014C20.7572 41.6722 21.137 41.3674 21.4357 41.1302C21.7302 40.8957 22.4165 40.622 24.0165 40.6439C24.9088 40.6563 25.7324 40.7523 26.144 40.8087C26.2778 40.8268 26.4118 40.7793 26.5039 40.681C26.5517 40.6298 26.5853 40.5688 26.6028 40.5036C26.6192 40.4423 26.6219 40.3773 26.609 40.314C25.8634 36.6001 23.1922 33.49 19.6377 32.1971C19.5168 32.153 19.3819 32.1674 19.273 32.236ZM25.6608 39.9117C25.2891 39.873 24.8192 39.8398 24.3251 39.8234C23.5823 37.4548 21.9082 35.5491 19.6627 34.5128C19.7439 34.0348 19.8089 33.5701 19.8532 33.1775C22.7081 34.3957 24.8724 36.9067 25.6608 39.9117Z" fill="#353535"/>
</g>
<g clip-path="url(#clip1)">
<path d="M52.6228 16.5853C51.7446 14.904 49.7463 14.1875 48.0212 14.8724C46.915 13.8738 45.2644 13.6102 43.8656 14.3407C43.2534 14.6606 42.7728 15.131 42.4377 15.6804C41.3619 14.9753 39.9472 14.8563 38.7259 15.4942C37.1067 16.34 36.3866 18.2245 36.9473 19.9035C36.8067 19.9563 36.6673 20.015 36.5308 20.0862C34.735 21.0243 34.0392 23.2407 34.9775 25.0369C35.0234 25.1249 35.0749 25.2077 35.1267 25.2903C34.5171 26.3424 34.4403 27.6724 35.0448 28.8298C35.5792 29.8529 36.5286 30.517 37.5786 30.7273C37.606 30.7876 37.6306 30.8487 37.6615 30.908C38.5996 32.7039 40.816 33.3996 42.6122 32.4614C43.1505 32.1802 43.5875 31.7829 43.9138 31.3181C44.7656 31.4395 45.9434 31.5327 46.3149 31.1975C46.3149 31.1975 47.7674 33.5889 48.0612 34.2354C48.6201 35.4655 48.9567 36.9841 49.267 38.1933L53.1769 36.151C53.1769 36.151 51.346 34.0504 50.902 33.2616C50.458 32.4729 49.9625 30.8522 49.9625 30.8522L50.5861 28.7407C51.2946 28.8249 52.0312 28.6985 52.7113 28.3432C54.3926 27.465 55.1074 25.4635 54.4225 23.7383C55.4211 22.6321 55.6831 20.9782 54.9525 19.5795C54.521 18.7536 53.8184 18.1644 53.0116 17.8555C52.9608 17.4239 52.8361 16.9936 52.6228 16.5853ZM44.3845 30.3888C44.5152 30.0038 44.582 29.5987 44.5804 29.1886L45.9175 30.1928C45.9172 30.193 45.6501 30.5277 44.3845 30.3888ZM47.2033 29.9677C46.9042 30.2003 45.8101 29.4769 44.9788 28.8584C45.5396 28.853 46.1074 28.7219 46.6388 28.4443C46.7753 28.373 46.9034 28.292 47.0269 28.2064C47.2699 28.9219 47.4752 29.7558 47.2033 29.9677ZM48.9471 29.8856C48.2938 30.497 47.9244 28.6751 47.6648 27.6442C47.7925 27.5026 47.9096 27.3532 48.0124 27.1948C48.4493 27.8168 49.0541 28.2678 49.7329 28.5198C49.5333 29.0451 49.2692 29.5843 48.9471 29.8856Z" fill="#353535"/>
</g>
<rect x="9.26392" y="14.3885" width="6" height="59.9958" transform="rotate(-45 9.26392 14.3885)" fill="#353535"/>
<defs>
<clipPath id="clip0">
<rect x="10" y="50.3186" width="20" height="20" transform="rotate(-75 10 50.3186)" fill="white"/>
</clipPath>
<clipPath id="clip1">
<rect x="29" y="20.5745" width="25" height="25" transform="rotate(-27.5797 29 20.5745)" fill="white"/>
</clipPath>
</defs>
</svg>
