<svg width="67" height="67" viewBox="0 0 67 67" fill="none" xmlns="http://www.w3.org/2000/svg">
<g clip-path="url(#clip0)">
<path d="M52.6286 3.79348C50.4519 1.34719 47.4347 0 44.1326 0C40.4468 0 37.2519 1.74278 34.8931 5.03978C34.7162 5.28697 34.5508 5.53416 34.3958 5.77887C34.2408 5.53403 34.0754 5.28697 33.8985 5.03978C31.5396 1.74278 28.3447 0 24.6589 0C21.3568 0 18.3395 1.34719 16.1629 3.79334C14.0974 6.11479 12.9597 9.21824 12.9597 12.532C12.9597 16.1331 14.3572 19.456 17.3571 22.9897C19.9747 26.0728 23.7293 29.2418 28.077 32.9113C29.6835 34.2674 31.3449 35.6696 33.1103 37.1997C33.4791 37.5193 33.9373 37.6792 34.3956 37.6792C34.8538 37.6792 35.312 37.5193 35.6809 37.1997C37.4461 35.67 39.1072 34.2678 40.7138 32.912C43.5059 30.5552 45.9172 28.52 48.0098 26.5458C52.0725 22.7127 55.8318 18.362 55.8318 12.5321C55.8318 9.21824 54.6942 6.11492 52.6286 3.79348ZM45.3163 23.6909C43.3029 25.5905 40.9299 27.5933 38.1823 29.9124C36.9599 30.944 35.7063 32.0021 34.3958 33.1259C33.0849 32.0023 31.8309 30.9439 30.6086 29.912C22.0505 22.6887 16.8847 18.3288 16.8847 12.5321C16.8844 7.62529 20.2266 3.92512 24.6588 3.92512C27.0267 3.92512 29.0405 5.03978 30.6441 7.23808C31.9603 9.0421 32.5006 10.9123 32.5043 10.9249C32.7399 11.7751 33.5135 12.3637 34.3956 12.3637C35.2777 12.3637 36.0514 11.7751 36.2869 10.9249C36.3063 10.8549 38.293 3.92512 44.1326 3.92512C48.5646 3.92512 51.9069 7.62542 51.9069 12.5321C51.9069 16.0874 50.0591 19.216 45.3163 23.6909Z" fill="#353535"/>
<path d="M61.1053 39.5256C59.4773 39.5256 57.9068 40.2091 56.7968 41.4007L51.0289 47.5927C50.2834 45.1959 48.0446 43.4506 45.4057 43.4506H36.3398C35.0706 43.4506 33.8467 42.9888 32.8938 42.1503C27.7689 37.6403 20.0658 37.6007 14.8923 42.0255C13.8254 40.515 12.0674 39.5257 10.0815 39.5257H1.97006C0.886287 39.5257 0.00756836 40.4043 0.00756836 41.4882V65.0377C0.00756836 66.1214 0.886156 67.0002 1.97006 67.0002H10.0815C11.8439 67.0002 13.4268 66.2206 14.5066 64.9895L15.6688 65.3161C19.644 66.4335 23.7533 67 27.8825 67H45.4056C49.7064 67 53.8147 64.9458 56.3953 61.5051L65.817 48.943C65.8171 48.9428 65.8173 48.9425 65.8175 48.9422C66.5863 47.9171 66.9927 46.6967 66.9927 45.4128C66.9927 42.1666 64.3515 39.5256 61.1053 39.5256ZM12.044 61.1125C12.044 62.1946 11.1637 63.075 10.0815 63.075H3.93243V43.4505H10.0815C11.1636 43.4505 12.044 44.3308 12.044 45.413V61.1125ZM62.6773 46.5877C62.6773 46.5878 62.6772 46.5878 62.677 46.5879L53.2555 59.1503C51.4122 61.608 48.4777 63.0752 45.4056 63.0752H27.8829C24.1127 63.0752 20.3607 62.5579 16.7312 61.5377L15.9637 61.3219C15.9662 61.2523 15.9691 61.1828 15.9691 61.1127V46.3001L17.3367 45.0965C21.0322 41.8447 26.6056 41.8444 30.3013 45.0965C31.9712 46.566 34.1156 47.3752 36.3401 47.3752H45.406C46.4881 47.3752 47.3685 48.2556 47.3685 49.3377C47.3685 50.4198 46.4882 51.3002 45.406 51.3002H31.4584C30.3746 51.3002 29.4959 52.1788 29.4959 53.2627C29.4959 54.3466 30.3745 55.2252 31.4584 55.2252H46.721C48.349 55.2252 49.9192 54.542 51.029 53.3506L59.6687 44.0758C60.0444 43.6725 60.5546 43.4505 61.1053 43.4505C62.1874 43.4505 63.0678 44.3308 63.0678 45.413C63.0678 45.8409 62.9327 46.2471 62.6773 46.5877Z" fill="#353535"/>
</g>
<defs>
<clipPath id="clip0">
<rect width="67" height="67" fill="white"/>
</clipPath>
</defs>
</svg>
