<svg width="67" height="67" viewBox="0 0 67 67" fill="none" xmlns="http://www.w3.org/2000/svg">
<path d="M33.0619 24.6001C33.6922 24.8473 34.3105 24.2423 34.1016 23.5985C32.6676 19.1796 27.4756 17.5311 22.649 21.4516C20.1102 23.5141 19.1561 23.9523 19.1321 23.9634C20.8058 25.6368 22.7179 31.2523 26.8909 31.8733C31.4877 32.7067 35.5562 28.1842 32.2276 26.1147C30.0385 24.7538 27.4611 23.9632 24.6983 23.9632C27.5947 23.3104 30.4861 23.5903 33.0619 24.6001Z" fill="#353535"/>
<path d="M53.8771 21.4514C45.5455 14.6839 40.2322 25.3563 43.5349 24.2984C45.8806 23.5471 48.445 23.3834 51.0173 23.9632C46.659 23.9632 42.6415 25.9605 39.963 29.2115C40.183 24.1025 40.5157 20.9045 40.9015 18.5256C43.1278 18.4491 46.095 16.6513 47.7244 13.5055C50.5337 8.47803 49.2309 3.32324 48.8117 0.0705566C46.6166 2.20807 37.0279 -0.296532 33.2267 6.2172C31.5476 9.09458 32.0356 12.596 33.802 15.1583C34.3611 15.9694 35.6981 15.5802 35.7362 14.5958C35.9021 10.3136 38.0334 7.07828 42.0065 5.28633C40.2236 7.59633 39.053 10.1825 38.4483 12.8556C37.5083 17.0196 36.5264 19.7511 36.1659 33.0229C36.1293 34.3689 37.2197 35.483 38.5661 35.4661C39.5407 35.4538 40.3756 34.8353 40.7505 33.9356C41.3206 32.567 42.2485 31.1507 43.7584 29.853C45.1932 31.439 47.3766 32.2829 49.6358 31.8732C53.791 31.2549 55.7302 25.6272 57.3945 23.963C57.3701 23.9523 56.4159 23.514 53.8771 21.4514Z" fill="#353535"/>
<path d="M66.1247 37.988C63.5201 36.2208 60.6853 37.4801 59.3835 38.2317L43.0462 50.189L33.4804 50.1911L31.089 47.7997H39.874C42.5161 47.7997 45.4751 46.0787 45.4751 43.0157C45.4751 39.7638 42.5161 38.2317 39.874 38.2317H36.5818C34.1363 38.2317 31.2783 38.4498 29.2632 37.3711C27.3487 36.3969 25.1441 35.8425 22.7907 35.8425C18.839 35.8425 15.3022 37.4179 12.8786 39.9023L0 52.5805L14.3487 66.9293L19.1317 59.7549H41.7333C44.1438 59.7549 46.4705 58.8706 48.2725 57.2698L66.2882 41.2658C67.2898 40.3761 67.2333 38.7402 66.1247 37.988Z" fill="#353535"/>
</svg>
