<svg width="18" height="18" viewBox="0 0 18 18" fill="none" xmlns="http://www.w3.org/2000/svg">
<path d="M16.4883 8.16164C16.0743 8.16164 15.7384 7.82573 15.7384 7.41169C15.7384 5.30794 14.9193 3.33095 13.4321 1.84285C13.1389 1.54966 13.1389 1.07573 13.4321 0.782398C13.7253 0.489201 14.1993 0.489201 14.4925 0.782398C16.2634 2.55312 17.2383 4.90749 17.2383 7.41169C17.2383 7.82573 16.9024 8.16164 16.4883 8.16164Z" fill="white"/>
<path d="M1.48824 8.16164C1.07433 8.16164 0.738281 7.82573 0.738281 7.41169C0.738281 4.90749 1.71332 2.55312 3.48404 0.782398C3.77724 0.489201 4.2513 0.489201 4.54449 0.782398C4.83783 1.07573 4.83783 1.54966 4.54449 1.84285C3.05722 3.33013 2.23833 5.30794 2.23833 7.41169C2.23833 7.82573 1.90228 8.16164 1.48824 8.16164Z" fill="white"/>
<path d="M16.0225 12.6848C14.8885 11.7263 14.2382 10.3252 14.2382 8.84097V6.75C14.2382 4.11081 12.2777 1.92604 9.73821 1.56006V0.749954C9.73821 0.33522 9.40216 0 8.98825 0C8.5742 0 8.23816 0.33522 8.23816 0.749954V1.56006C5.69798 1.92604 3.73816 4.11081 3.73816 6.75V8.84097C3.73816 10.3252 3.08791 11.7263 1.94725 12.6907C1.65543 12.9405 1.48816 13.3035 1.48816 13.6875C1.48816 14.4113 2.07689 15 2.80075 15H15.1758C15.8995 15 16.4882 14.4113 16.4882 13.6875C16.4882 13.3035 16.3209 12.9405 16.0225 12.6848Z" fill="white"/>
<path d="M8.9883 18C10.3465 18 11.4827 17.0317 11.7438 15.75H6.23279C6.49371 17.0317 7.62997 18 8.9883 18Z" fill="white"/>
</svg>
