<svg width="35" height="35" viewBox="0 0 35 35" fill="none" xmlns="http://www.w3.org/2000/svg">
<path d="M31.5 0H3.5C1.575 0 0 1.575 0 3.5V31.5C0 33.425 1.575 35 3.5 35H31.5C33.425 35 35 33.425 35 31.5V3.5C35 1.575 33.425 0 31.5 0ZM27.475 12.775C27.3 20.825 22.225 26.425 14.525 26.775C11.375 26.95 9.1 25.9 7 24.675C9.275 25.0251 12.25 24.1501 13.825 22.75C11.55 22.575 10.15 21.35 9.45 19.425C10.15 19.6 10.85 19.425 11.375 19.425C9.275 18.725 7.875 17.5 7.7 14.7C8.225 15.05 8.925 15.225 9.625 15.225C8.05 14.35 7 11.025 8.225 8.925C10.5 11.375 13.3 13.475 17.85 13.825C16.625 8.925 23.2751 6.3 25.9001 9.625C27.1251 9.45 28.0001 8.925 28.8751 8.575C28.5251 9.8 27.8251 10.5 26.9501 11.2C27.8251 11.025 28.7001 10.85 29.4001 10.5C29.225 11.375 28.35 12.075 27.475 12.775Z" fill="white"/>
</svg>
