<svg width="35" height="35" viewBox="0 0 35 35" fill="none" xmlns="http://www.w3.org/2000/svg">
<path d="M33.6358 7.29853C32.3724 5.79669 30.0398 5.18408 25.5851 5.18408H9.41455C4.85789 5.18408 2.48579 5.83621 1.22715 7.43515C0 8.99411 0 11.2911 0 14.4703V20.5297C0 26.6886 1.456 29.8157 9.41455 29.8157H25.5852C29.4483 29.8157 31.589 29.2751 32.9738 27.9498C34.394 26.5906 35 24.3715 35 20.5297V14.4703C35 11.1176 34.905 8.80703 33.6358 7.29853ZM22.4701 18.3365L15.1271 22.1742C14.963 22.26 14.7834 22.3026 14.6041 22.3026C14.4011 22.3026 14.1986 22.2479 14.0192 22.1393C13.6814 21.9346 13.4751 21.5685 13.4751 21.1735V13.5228C13.4751 13.1285 13.6808 12.7627 14.018 12.5579C14.3552 12.3531 14.7746 12.3391 15.1245 12.5209L22.4675 16.3338C22.8411 16.5278 23.0757 16.9135 23.0763 17.3343C23.0767 17.7554 22.8431 18.1416 22.4701 18.3365Z" fill="white"/>
</svg>
